<svg fill="none" xmlns="http://www.w3.org/2000/svg" viewBox="0 0 561 143">
  <path d="M153.188 117v-16h9.922v2.078h-7.507v4.875h6.796v2.07h-6.796V117h-2.415zm15.04-16v16h-2.336v-16h2.336zm8.197 16.242c-1.125 0-2.107-.258-2.946-.773-.838-.516-1.489-1.237-1.953-2.164-.463-.927-.695-2.011-.695-3.25 0-1.245.232-2.334.695-3.266.464-.932 1.115-1.656 1.953-2.172.839-.515 1.821-.773 2.946-.773 1.125 0 2.107.258 2.945.773.839.516 1.49 1.24 1.953 2.172.464.932.696 2.021.696 3.266 0 1.239-.232 2.323-.696 3.25-.463.927-1.114 1.648-1.953 2.164-.838.515-1.82.773-2.945.773zm.008-1.961c.729 0 1.333-.192 1.812-.578.479-.385.833-.898 1.063-1.539a6.13 6.13 0 00.351-2.117 6.11 6.11 0 00-.351-2.11c-.23-.645-.584-1.164-1.063-1.554-.479-.391-1.083-.586-1.812-.586-.735 0-1.344.195-1.829.586-.479.39-.835.909-1.07 1.554a6.23 6.23 0 00-.344 2.11c0 .771.115 1.476.344 2.117.235.641.591 1.154 1.07 1.539.485.386 1.094.578 1.829.578zM186.862 117l-3.531-12h2.414l2.352 8.812h.117l2.359-8.812h2.414l2.344 8.773h.117l2.336-8.773h2.414l-3.523 12h-2.383l-2.438-8.664h-.179L189.237 117h-2.375zm20.36.242c-1.183 0-2.201-.252-3.055-.758-.849-.51-1.505-1.226-1.969-2.148-.458-.927-.687-2.013-.687-3.258 0-1.229.229-2.312.687-3.25.464-.937 1.11-1.669 1.938-2.195.833-.526 1.807-.789 2.922-.789.677 0 1.333.112 1.968.336a4.763 4.763 0 011.711 1.054c.506.48.904 1.102 1.196 1.868.291.76.437 1.684.437 2.773v.828h-9.539v-1.75h7.25c0-.614-.125-1.159-.375-1.633a2.845 2.845 0 00-1.055-1.133c-.448-.276-.974-.414-1.578-.414-.656 0-1.229.162-1.719.485a3.256 3.256 0 00-1.125 1.25c-.26.51-.39 1.065-.39 1.664v1.367c0 .802.14 1.484.422 2.047.286.562.685.992 1.195 1.289.51.292 1.107.437 1.789.437.443 0 .846-.062 1.211-.187.365-.13.68-.323.945-.578a2.51 2.51 0 00.61-.945l2.211.398a4.009 4.009 0 01-.953 1.711c-.454.484-1.024.862-1.711 1.133-.683.265-1.461.398-2.336.398zm7.74-.242v-12h2.258v1.906h.125a2.896 2.896 0 011.156-1.523 3.308 3.308 0 011.891-.563 10.537 10.537 0 01.992.055v2.234a4.392 4.392 0 00-.5-.086 4.834 4.834 0 00-.719-.054c-.552 0-1.044.117-1.477.351a2.613 2.613 0 00-1.39 2.352V117h-2.336zm14.453 0v-16h9.922v2.078h-7.508v4.875h6.797v2.07h-6.797V117h-2.414zm16.152.266c-.76 0-1.448-.141-2.062-.422a3.478 3.478 0 01-1.461-1.242c-.354-.542-.531-1.206-.531-1.993 0-.677.13-1.234.39-1.672a2.896 2.896 0 011.055-1.039 5.554 5.554 0 011.484-.578c.547-.13 1.105-.229 1.672-.297l1.75-.203c.448-.057.774-.148.977-.273.203-.125.305-.328.305-.61v-.054c0-.682-.193-1.211-.579-1.586-.38-.375-.948-.563-1.703-.563-.786 0-1.406.175-1.859.524-.448.344-.758.726-.93 1.148l-2.195-.5c.26-.729.641-1.317 1.141-1.765a4.606 4.606 0 011.742-.985 6.808 6.808 0 012.07-.312c.479 0 .987.057 1.523.172a4.45 4.45 0 011.516.609c.474.297.862.721 1.164 1.273.302.547.453 1.258.453 2.133V117h-2.281v-1.641h-.094a3.33 3.33 0 01-.679.891c-.303.292-.691.534-1.164.727-.474.192-1.042.289-1.704.289zm.508-1.875c.646 0 1.198-.128 1.656-.383a2.676 2.676 0 001.055-1c.245-.417.367-.862.367-1.336v-1.547c-.083.083-.244.161-.484.234a7.43 7.43 0 01-.805.18c-.302.047-.596.091-.883.133-.286.036-.526.068-.718.094a5.74 5.74 0 00-1.242.289c-.37.135-.667.33-.891.586-.219.25-.328.583-.328 1 0 .578.213 1.015.64 1.312.427.292.972.438 1.633.438zm8.526 1.609v-12h2.257v1.906h.125a2.903 2.903 0 011.157-1.523 3.307 3.307 0 011.89-.563 10.537 10.537 0 01.992.055v2.234a4.308 4.308 0 00-.5-.086 4.82 4.82 0 00-.718-.054c-.552 0-1.045.117-1.477.351a2.613 2.613 0 00-1.39 2.352V117h-2.336zm8.443 0v-12h2.242v1.953h.149a3.1 3.1 0 011.226-1.547c.568-.375 1.248-.562 2.039-.562.802 0 1.474.187 2.016.562.547.375.95.891 1.211 1.547h.125a3.37 3.37 0 011.367-1.531c.625-.386 1.37-.578 2.234-.578 1.089 0 1.977.341 2.664 1.023.693.682 1.039 1.711 1.039 3.086V117h-2.335v-7.828c0-.813-.222-1.401-.665-1.766-.442-.364-.971-.547-1.585-.547-.761 0-1.352.235-1.774.703-.422.464-.633 1.06-.633 1.79V117h-2.328v-7.977c0-.651-.203-1.174-.609-1.57-.406-.396-.935-.594-1.586-.594-.443 0-.852.118-1.227.352-.37.229-.669.549-.898.961-.224.411-.336.888-.336 1.43V117h-2.336zm28.758.266c-.761 0-1.448-.141-2.063-.422a3.49 3.49 0 01-1.461-1.242c-.354-.542-.531-1.206-.531-1.993 0-.677.13-1.234.391-1.672.26-.437.612-.783 1.054-1.039a5.548 5.548 0 011.485-.578c.547-.13 1.104-.229 1.672-.297l1.75-.203c.448-.057.773-.148.976-.273.203-.125.305-.328.305-.61v-.054c0-.682-.193-1.211-.578-1.586-.38-.375-.948-.563-1.703-.563-.787 0-1.407.175-1.86.524-.448.344-.758.726-.929 1.148l-2.196-.5c.261-.729.641-1.317 1.141-1.765a4.614 4.614 0 011.742-.985 6.808 6.808 0 012.07-.312c.48 0 .987.057 1.524.172a4.445 4.445 0 011.515.609c.474.297.862.721 1.165 1.273.302.547.453 1.258.453 2.133V117h-2.282v-1.641h-.093a3.334 3.334 0 01-.68.891c-.302.292-.69.534-1.164.727-.474.192-1.042.289-1.703.289zm.508-1.875c.645 0 1.197-.128 1.656-.383a2.69 2.69 0 001.055-1c.244-.417.367-.862.367-1.336v-1.547c-.084.083-.245.161-.485.234a7.408 7.408 0 01-.804.18c-.302.047-.597.091-.883.133-.287.036-.526.068-.719.094a5.74 5.74 0 00-1.242.289c-.37.135-.667.33-.891.586-.218.25-.328.583-.328 1 0 .578.214 1.015.641 1.312.427.292.971.438 1.633.438zm10.861-5.516V117h-2.336v-12h2.242v1.953h.149a3.43 3.43 0 011.296-1.531c.594-.386 1.342-.578 2.243-.578.817 0 1.534.172 2.148.515.615.339 1.091.844 1.43 1.516.338.672.508 1.503.508 2.492V117h-2.336v-7.352c0-.869-.227-1.549-.68-2.039-.453-.494-1.076-.742-1.867-.742-.542 0-1.024.117-1.446.352a2.531 2.531 0 00-.992 1.031c-.239.448-.359.99-.359 1.625zm15.305 7.359c-.969 0-1.834-.247-2.594-.742-.755-.5-1.349-1.211-1.781-2.133-.427-.927-.641-2.039-.641-3.336 0-1.296.216-2.406.648-3.328.438-.922 1.037-1.627 1.797-2.117.761-.489 1.623-.734 2.586-.734.745 0 1.344.125 1.797.375.458.245.813.531 1.063.859.255.328.453.617.593.867h.141V101h2.336v16h-2.281v-1.867h-.196c-.14.255-.343.547-.609.875-.26.328-.62.614-1.078.859-.458.245-1.052.367-1.781.367zm.515-1.992c.672 0 1.24-.177 1.703-.531.469-.359.823-.857 1.063-1.492.245-.636.367-1.375.367-2.219 0-.833-.12-1.563-.359-2.188-.24-.625-.591-1.111-1.055-1.46-.464-.349-1.036-.524-1.719-.524-.703 0-1.289.182-1.758.547-.468.365-.823.862-1.062 1.492-.234.63-.352 1.341-.352 2.133 0 .802.12 1.523.36 2.164.239.641.593 1.148 1.062 1.523.474.37 1.058.555 1.75.555zM333.765 101h2.929l5.094 12.437h.188L347.069 101h2.93v16h-2.297v-11.578h-.148l-4.719 11.555h-1.906l-4.719-11.563h-.148V117h-2.297v-16zm23.048 16.266c-.76 0-1.447-.141-2.062-.422a3.478 3.478 0 01-1.461-1.242c-.354-.542-.531-1.206-.531-1.993 0-.677.13-1.234.39-1.672a2.896 2.896 0 011.055-1.039 5.554 5.554 0 011.484-.578c.547-.13 1.105-.229 1.672-.297l1.75-.203c.448-.057.774-.148.977-.273.203-.125.305-.328.305-.61v-.054c0-.682-.193-1.211-.579-1.586-.38-.375-.947-.563-1.703-.563-.786 0-1.406.175-1.859.524-.448.344-.758.726-.93 1.148l-2.195-.5c.26-.729.641-1.317 1.141-1.765a4.614 4.614 0 011.742-.985 6.808 6.808 0 012.07-.312c.479 0 .987.057 1.524.172a4.453 4.453 0 011.515.609c.474.297.862.721 1.164 1.273.302.547.453 1.258.453 2.133V117h-2.281v-1.641h-.094a3.33 3.33 0 01-.679.891c-.302.292-.69.534-1.164.727-.474.192-1.042.289-1.704.289zm.508-1.875c.646 0 1.198-.128 1.657-.383a2.68 2.68 0 001.054-1c.245-.417.367-.862.367-1.336v-1.547c-.083.083-.244.161-.484.234a7.43 7.43 0 01-.805.18c-.302.047-.596.091-.882.133-.287.036-.527.068-.719.094a5.74 5.74 0 00-1.242.289c-.37.135-.667.33-.891.586-.219.25-.328.583-.328 1 0 .578.213 1.015.64 1.312.428.292.972.438 1.633.438zm8.526 1.609v-12h2.257v1.906h.125a2.903 2.903 0 011.157-1.523 3.307 3.307 0 011.89-.563 10.537 10.537 0 01.993.055v2.234a4.392 4.392 0 00-.5-.086 4.844 4.844 0 00-.719-.054c-.552 0-1.044.117-1.477.351a2.613 2.613 0 00-1.39 2.352V117h-2.336zm10.591-4.07l-.015-2.852h.406L381.61 105h2.797l-5.453 5.781h-.367l-2.149 2.149zM374.29 117v-16h2.336v16h-2.336zm7.578 0l-4.297-5.703 1.61-1.633 5.554 7.336h-2.867zm9.346.242c-1.182 0-2.201-.252-3.055-.758-.849-.51-1.505-1.226-1.969-2.148-.458-.927-.687-2.013-.687-3.258 0-1.229.229-2.312.687-3.25.464-.937 1.11-1.669 1.938-2.195.833-.526 1.807-.789 2.922-.789.677 0 1.333.112 1.969.336a4.768 4.768 0 011.71 1.054c.506.48.904 1.102 1.196 1.868.291.76.437 1.684.437 2.773v.828h-9.539v-1.75h7.25c0-.614-.125-1.159-.375-1.633a2.842 2.842 0 00-1.054-1.133c-.448-.276-.974-.414-1.579-.414-.656 0-1.229.162-1.718.485a3.24 3.24 0 00-1.125 1.25 3.6 3.6 0 00-.391 1.664v1.367c0 .802.141 1.484.422 2.047.286.562.685.992 1.195 1.289.511.292 1.107.437 1.789.437.443 0 .847-.062 1.211-.187.365-.13.68-.323.946-.578a2.52 2.52 0 00.609-.945l2.211.398a4.009 4.009 0 01-.953 1.711c-.453.484-1.024.862-1.711 1.133-.682.265-1.461.398-2.336.398zM404.556 105v1.875h-6.555V105h6.555zm-4.797-2.875h2.336v11.352c0 .453.067.794.203 1.023.135.224.31.378.523.461.219.078.456.117.711.117.188 0 .352-.013.492-.039l.329-.062.421 1.929a4.024 4.024 0 01-.578.157c-.25.057-.562.088-.937.093a4.105 4.105 0 01-1.719-.328 2.948 2.948 0 01-1.289-1.062c-.328-.48-.492-1.081-.492-1.805v-11.836zm113.248-31.877c-.171 1.323-.875 3.36-1.771 8.864-.64 3.712-1.046 6.165-1.216 7.36-1.622 11.008-3.819 19.691-6.592 26.048-2.731 6.4-6.4 9.6-11.008 9.6-2.176 0-3.947-.683-5.312-2.048-1.366-1.323-2.048-3.072-2.048-5.248 0-3.029 1.194-6.293 3.584-9.792 2.389-3.456 6.869-7.723 13.44-12.8l.384-2.496a7.588 7.588 0 01-2.88 2.688c-1.152.597-2.304.896-3.456.896-2.646 0-4.758-.96-6.336-2.88-1.579-1.92-2.368-4.437-2.368-7.552 0-3.413.789-6.635 2.368-9.664 1.578-3.072 3.669-5.525 6.272-7.36 2.645-1.877 5.44-2.816 8.384-2.816.938 0 2.048-.048 3.548-.048h5.007v7.248zm-14.571 16.608c.981 0 1.92-.597 2.816-1.792.896-1.195 1.536-2.901 1.92-5.12l1.786-9.696c-1.749.043-3.609.191-5.102 1.514-1.493 1.28-2.188 2.273-3.084 4.406-.896 2.133-1.344 4.395-1.344 6.784 0 1.323.256 2.304.768 2.944.554.64 1.301.96 2.24.96zm-5.312 29.056c1.066 0 2.261-1.28 3.584-3.84 1.365-2.56 2.666-6.635 3.904-12.224-3.286 2.816-5.654 5.355-7.104 7.616-1.451 2.261-2.176 4.245-2.176 5.952 0 .725.128 1.323.384 1.792.298.469.768.704 1.408.704z" fill="#2C2C2C"/>
  <path d="M461.054 93.32c-1.622 0-2.774-.853-3.456-2.56-.64-1.707-.96-4.437-.96-8.192 0-5.547.789-10.816 2.368-15.808.384-1.237 1.002-2.133 1.856-2.688.896-.597 2.133-.896 3.712-.896.853 0 1.45.107 1.792.32.341.213.512.619.512 1.216 0 .683-.32 2.219-.96 4.608a97.764 97.764 0 00-1.024 4.48c-.256 1.28-.47 2.859-.64 4.736 1.408-3.67 2.986-6.656 4.736-8.96 1.749-2.304 3.456-3.947 5.12-4.928 1.706-.981 3.264-1.472 4.672-1.472 2.773 0 4.16 1.387 4.16 4.16 0 1.664-.47 4.672-1.408 9.024-.811 3.712-1.216 6.165-1.216 7.36 0 1.707.618 2.56 1.856 2.56.853 0 1.856-.512 3.008-1.536 1.194-1.067 2.773-2.773 4.736-5.12.512-.597 1.088-.896 1.728-.896.554 0 .981.256 1.28.768.341.512.512 1.216.512 2.112 0 1.707-.406 3.03-1.216 3.968-1.835 2.261-3.819 4.117-5.952 5.568-2.091 1.45-4.48 2.176-7.168 2.176-2.176 0-3.819-.619-4.928-1.856-1.11-1.28-1.664-3.115-1.664-5.504 0-1.195.298-3.328.896-6.4.554-2.688.832-4.544.832-5.568 0-.683-.235-1.024-.704-1.024-.555 0-1.344.725-2.368 2.176-.982 1.408-2.006 3.285-3.072 5.632a45.972 45.972 0 00-2.496 7.424c-.47 2.005-1.024 3.37-1.664 4.096-.598.683-1.558 1.024-2.88 1.024z" fill="#2C2C2C"/>
  <path d="M449.144 58.952c-1.792 0-3.136-.405-4.032-1.216-.896-.853-1.344-2.027-1.344-3.52 0-1.493.576-2.73 1.728-3.712 1.194-1.024 2.666-1.536 4.416-1.536 1.578 0 2.858.384 3.84 1.152.981.768 1.472 1.856 1.472 3.264 0 1.707-.555 3.072-1.664 4.096-1.11.981-2.582 1.472-4.416 1.472zm-.512 34.368c-2.774 0-4.8-.981-6.08-2.944-1.238-1.963-1.856-4.565-1.856-7.808 0-1.92.234-4.373.704-7.36.512-3.03 1.152-5.845 1.92-8.448.384-1.365.896-2.304 1.536-2.816s1.664-.768 3.072-.768c2.176 0 3.264.725 3.264 2.176 0 1.067-.406 3.541-1.216 7.424-1.024 4.693-1.536 7.872-1.536 9.536 0 1.28.17 2.261.512 2.944.341.683.917 1.024 1.728 1.024.768 0 1.728-.533 2.88-1.6 1.152-1.067 2.688-2.752 4.608-5.056.512-.597 1.088-.896 1.728-.896.554 0 .981.256 1.28.768.341.512.512 1.216.512 2.112 0 1.707-.406 3.03-1.216 3.968-4.224 5.163-8.171 7.744-11.84 7.744z" fill="#2C2C2C"/>
  <path d="M413.554 93.32c-1.622 0-2.774-.853-3.456-2.56-.64-1.707-.96-4.437-.96-8.192 0-5.547.789-10.816 2.368-15.808.384-1.237 1.002-2.133 1.856-2.688.896-.597 2.133-.896 3.712-.896.853 0 1.45.107 1.792.32.341.213.512.619.512 1.216 0 .683-.32 2.219-.96 4.608a97.764 97.764 0 00-1.024 4.48c-.256 1.28-.47 2.859-.64 4.736 1.408-3.67 2.986-6.656 4.736-8.96 1.749-2.304 3.456-3.947 5.12-4.928 1.706-.981 3.264-1.472 4.672-1.472 2.773 0 4.16 1.387 4.16 4.16 0 1.664-.47 4.672-1.408 9.024-.811 3.712-1.216 6.165-1.216 7.36 0 1.707.618 2.56 1.856 2.56.853 0 1.856-.512 3.008-1.536 1.194-1.067 2.773-2.773 4.736-5.12.512-.597 1.088-.896 1.728-.896.554 0 .981.256 1.28.768.341.512.512 1.216.512 2.112 0 1.707-.406 3.03-1.216 3.968-1.835 2.261-3.819 4.117-5.952 5.568-2.091 1.45-4.48 2.176-7.168 2.176-2.176 0-3.819-.619-4.928-1.856-1.11-1.28-1.664-3.115-1.664-5.504 0-1.195.298-3.328.896-6.4.554-2.688.832-4.544.832-5.568 0-.683-.235-1.024-.704-1.024-.555 0-1.344.725-2.368 2.176-.982 1.408-2.006 3.285-3.072 5.632a45.972 45.972 0 00-2.496 7.424c-.47 2.005-1.024 3.37-1.664 4.096-.598.683-1.558 1.024-2.88 1.024z" fill="#2C2C2C"/>
  <path d="M384.429 93.32c-1.622 0-2.774-.853-3.456-2.56-.64-1.707-.96-4.437-.96-8.192 0-5.547.789-10.816 2.368-15.808.384-1.237 1.002-2.133 1.856-2.688.896-.597 2.133-.896 3.712-.896.853 0 1.45.107 1.792.32.341.213.512.619.512 1.216 0 .683-.32 2.219-.96 4.608a97.764 97.764 0 00-1.024 4.48c-.256 1.28-.47 2.859-.64 4.736 1.408-3.67 2.986-6.656 4.736-8.96 1.749-2.304 3.456-3.947 5.12-4.928 1.706-.981 3.264-1.472 4.672-1.472 2.773 0 4.16 1.387 4.16 4.16 0 .555-.192 1.899-.576 4.032-.342 1.707-.512 2.773-.512 3.2 0 1.493.533 2.24 1.6 2.24 1.194 0 2.73-.939 4.608-2.816.554-.555 1.13-.832 1.728-.832.554 0 .981.256 1.28.768.341.47.512 1.11.512 1.92 0 1.579-.427 2.816-1.28 3.712-1.195 1.237-2.603 2.304-4.224 3.2a10.475 10.475 0 01-5.056 1.28c-2.262 0-3.99-.576-5.184-1.728-1.152-1.152-1.728-2.71-1.728-4.672 0-.64.064-1.28.192-1.92.085-.853.128-1.43.128-1.728 0-.683-.235-1.024-.704-1.024-.64 0-1.494.725-2.56 2.176-1.024 1.408-2.048 3.285-3.072 5.632a45.972 45.972 0 00-2.496 7.424c-.47 2.005-1.024 3.37-1.664 4.096-.598.683-1.558 1.024-2.88 1.024z" fill="#2C2C2C"/>
  <path d="M383.65 73.352c.554 0 .981.277 1.28.832.298.555.448 1.259.448 2.112 0 2.048-.619 3.264-1.856 3.648-2.56.896-5.376 1.408-8.448 1.536-.811 3.584-2.411 6.464-4.8 8.64-2.39 2.133-5.099 3.2-8.128 3.2-2.56 0-4.758-.619-6.592-1.856-1.792-1.237-3.158-2.88-4.096-4.928-.939-2.048-1.408-4.267-1.408-6.656 0-3.243.618-6.123 1.856-8.64 1.237-2.56 2.944-4.544 5.12-5.952 2.176-1.45 4.586-2.176 7.232-2.176 3.242 0 5.845 1.13 7.808 3.392 2.005 2.219 3.178 4.97 3.52 8.256 2.005-.128 4.394-.555 7.168-1.28a3.76 3.76 0 01.896-.128zm-20.992 13.184c1.365 0 2.538-.555 3.52-1.664 1.024-1.11 1.706-2.71 2.048-4.8a9.077 9.077 0 01-3.072-3.52 10.686 10.686 0 01-1.024-4.608c0-.683.064-1.365.192-2.048h-.32c-1.707 0-3.136.832-4.288 2.496-1.11 1.621-1.664 3.925-1.664 6.912 0 2.347.448 4.139 1.344 5.376.938 1.237 2.026 1.856 3.264 1.856z" fill="#2C2C2C"/>
  <path d="M283.911 93.32c-1.579 0-2.71-.341-3.392-1.024-.683-.725-1.024-2.07-1.024-4.032 0-1.323.128-3.008.384-5.056.298-2.09.768-4.95 1.408-8.576 1.109-6.699 1.984-12.501 2.624-17.408.384-3.072.576-5.632.576-7.68 0-1.92-.704-2.88-2.112-2.88-1.11 0-2.454.576-4.032 1.728-1.536 1.11-3.243 2.901-5.12 5.376-.598.81-1.259 1.216-1.984 1.216-.598 0-1.131-.277-1.6-.832a3.334 3.334 0 01-.64-1.984c0-.683.128-1.365.384-2.048.298-.725.768-1.536 1.408-2.432 2.048-2.859 4.33-5.056 6.848-6.592 2.517-1.579 5.034-2.368 7.552-2.368 2.346 0 4.138.747 5.376 2.24 1.28 1.493 1.92 3.67 1.92 6.528 0 1.152-.107 2.517-.32 4.096a119.696 119.696 0 01-.576 3.776 53.985 53.985 0 01-.384 2.048c2.432-6.955 5.162-11.797 8.192-14.528 3.029-2.773 6.357-4.16 9.984-4.16 2.773 0 4.949.981 6.528 2.944 1.621 1.963 2.432 4.736 2.432 8.32 0 1.408-.192 3.157-.576 5.248 2.133-5.888 4.629-10.112 7.488-12.672 2.858-2.56 6.144-3.84 9.856-3.84 2.986 0 5.269.96 6.848 2.88 1.621 1.92 2.432 4.608 2.432 8.064 0 1.877-.278 4.16-.832 6.848l-3.904 18.304c-.427 2.133-.64 3.968-.64 5.504 0 1.792.405 3.136 1.216 4.032.853.896 2.026 1.344 3.52 1.344 1.408 0 2.773-.47 4.096-1.408 1.365-.939 2.965-2.496 4.8-4.672.512-.597 1.088-.896 1.728-.896.554 0 .981.256 1.28.768.341.512.512 1.216.512 2.112 0 1.664-.406 2.987-1.216 3.968-2.219 2.688-4.416 4.65-6.592 5.888-2.176 1.237-4.459 1.856-6.848 1.856-3.627 0-6.464-1.067-8.512-3.2-2.048-2.176-3.072-5.077-3.072-8.704 0-2.517.512-6.165 1.536-10.944l2.56-11.712.448-2.048c.213-.981.384-1.899.512-2.752.128-.896.192-1.77.192-2.624 0-1.493-.299-2.603-.896-3.328-.555-.768-1.366-1.152-2.432-1.152-2.006 0-4.118 1.301-6.336 3.904-2.176 2.56-4.267 6.827-6.272 12.8-1.963 5.973-3.563 13.739-4.8 23.296-.299 2.56-.832 4.288-1.6 5.184-.726.853-1.92 1.28-3.584 1.28-1.451 0-2.518-.341-3.2-1.024-.64-.683-.96-1.963-.96-3.84 0-1.75.234-4.032.704-6.848a427.839 427.839 0 011.792-10.048c1.962-10.325 2.944-16.981 2.944-19.968 0-1.621-.32-2.816-.96-3.584-.598-.768-1.515-1.152-2.752-1.152-2.091 0-4.246 1.195-6.464 3.584-2.219 2.347-4.395 6.55-6.528 12.608-2.091 6.016-3.84 14.165-5.248 24.448-.299 2.176-.747 3.69-1.344 4.544-.555.853-1.664 1.28-3.328 1.28zm-45.764 0c-1.621 0-2.773-.853-3.456-2.56-.64-1.707-.96-4.437-.96-8.192 0-5.547.79-10.816 2.368-15.808.384-1.237 1.003-2.133 1.856-2.688.896-.597 2.134-.896 3.712-.896.854 0 1.451.107 1.792.32.342.213.512.619.512 1.216 0 .683-.32 2.219-.96 4.608a99.113 99.113 0 00-1.024 4.48c-.256 1.28-.469 2.859-.64 4.736 1.408-3.67 2.987-6.656 4.736-8.96 1.75-2.304 3.456-3.947 5.12-4.928 1.707-.981 3.264-1.472 4.672-1.472 1.366 0 2.39.363 3.072 1.088.726.683 1.088 1.707 1.088 3.072 0 1.11-.234 3.2-.704 6.272a140.23 140.23 0 00-1.024 7.424c-.256 2.304-.384 4.885-.384 7.744 0 1.621-.341 2.795-1.024 3.52-.64.683-1.706 1.024-3.2 1.024-1.408 0-2.432-.363-3.072-1.088-.64-.725-.96-1.813-.96-3.264 0-1.707.299-4.523.896-8.448.512-3.413.768-5.59.768-6.528 0-.683-.234-1.024-.704-1.024-.554 0-1.344.725-2.368 2.176-.981 1.408-2.005 3.285-3.072 5.632a45.972 45.972 0 00-2.496 7.424c-.469 2.005-1.024 3.37-1.664 4.096-.597.683-1.557 1.024-2.88 1.024z" fill="#2C2C2C"/>
  <path d="M237.022 78.728c.555 0 .982.256 1.28.768.342.512.512 1.216.512 2.112 0 1.707-.405 3.03-1.216 3.968-1.578 1.92-3.818 3.69-6.72 5.312a18.374 18.374 0 01-9.216 2.432c-4.48 0-7.957-1.216-10.432-3.648-2.474-2.432-3.712-5.76-3.712-9.984 0-2.944.619-5.675 1.856-8.192 1.238-2.56 2.944-4.587 5.12-6.08 2.219-1.493 4.715-2.24 7.488-2.24 2.475 0 4.459.747 5.952 2.24 1.494 1.45 2.24 3.435 2.24 5.952 0 2.944-1.066 5.483-3.2 7.616-2.09 2.09-5.653 3.755-10.688 4.992 1.067 1.963 3.094 2.944 6.08 2.944 1.92 0 4.096-.661 6.528-1.984a21.952 21.952 0 006.4-5.312c.512-.597 1.088-.896 1.728-.896zm-16.128-9.28c-1.578 0-2.922.917-4.032 2.752-1.066 1.835-1.6 4.053-1.6 6.656v.128c2.518-.597 4.502-1.493 5.952-2.688 1.451-1.195 2.176-2.581 2.176-4.16 0-.81-.234-1.45-.704-1.92-.426-.512-1.024-.768-1.792-.768z" fill="#2C2C2C"/>
  <path d="M211.893 78.728c.554 0 .981.256 1.28.768.341.512.512 1.216.512 2.112 0 1.707-.406 3.03-1.216 3.968-1.75 2.133-3.67 3.968-5.76 5.504-2.091 1.493-4.16 2.24-6.208 2.24-3.243 0-5.718-1.899-7.424-5.696-1.792 2.261-3.371 3.776-4.736 4.544-1.323.768-2.88 1.152-4.672 1.152-2.603 0-4.758-.96-6.464-2.88-1.664-1.963-2.496-4.501-2.496-7.616 0-3.413.725-6.57 2.176-9.472 1.45-2.944 3.434-5.333 5.952-7.168a17.422 17.422 0 018.576-3.328c.81-8.277 2.346-15.339 4.608-21.184 2.304-5.888 5.312-8.832 9.024-8.832 1.834 0 3.349.832 4.544 2.496 1.237 1.664 1.856 4.181 1.856 7.552 0 4.779-1.174 10.368-3.52 16.768-2.347 6.4-5.483 12.97-9.408 19.712.17 2.475.533 4.245 1.088 5.312.597 1.067 1.344 1.6 2.24 1.6 1.152 0 2.325-.512 3.52-1.536 1.194-1.024 2.794-2.73 4.8-5.12.512-.597 1.088-.896 1.728-.896zm-7.552-39.616c-.811 0-1.622 1.45-2.432 4.352-.811 2.859-1.515 6.613-2.112 11.264-.555 4.65-.96 9.515-1.216 14.592 4.778-10.41 7.168-18.773 7.168-25.088 0-1.621-.15-2.88-.448-3.776-.256-.896-.576-1.344-.96-1.344zm-18.432 47.744c.81 0 1.621-.32 2.432-.96.81-.683 1.834-1.92 3.072-3.712-.427-2.304-.64-4.885-.64-7.744 0-1.024.042-2.688.128-4.992-2.347.725-4.31 2.304-5.888 4.736-1.536 2.39-2.304 5.056-2.304 8 0 3.115 1.066 4.672 3.2 4.672z" fill="#2C2C2C"/>
  <path d="M179.547 78.728c.554 0 .981.256 1.28.768.341.512.512 1.216.512 2.112 0 1.707-.406 3.03-1.216 3.968-1.835 2.261-3.84 4.117-6.016 5.568-2.134 1.45-4.566 2.176-7.296 2.176-3.755 0-6.55-1.707-8.384-5.12-1.792-3.413-2.688-7.83-2.688-13.248 0-5.205.661-11.136 1.984-17.792 1.365-6.656 3.349-12.373 5.952-17.152 2.645-4.779 5.781-7.168 9.408-7.168 2.048 0 3.648.96 4.8 2.88 1.194 1.877 1.792 4.587 1.792 8.128 0 5.077-1.408 10.965-4.224 17.664-2.816 6.699-6.635 13.333-11.456 19.904.298 1.75.789 3.008 1.472 3.776.682.725 1.578 1.088 2.688 1.088 1.749 0 3.285-.49 4.608-1.472 1.322-1.024 3.008-2.752 5.056-5.184.512-.597 1.088-.896 1.728-.896zm-7.872-39.552c-.982 0-2.091 1.77-3.328 5.312-1.238 3.541-2.326 7.936-3.264 13.184-.939 5.248-1.451 10.283-1.536 15.104 3.029-4.992 5.44-9.984 7.232-14.976 1.792-5.035 2.688-9.621 2.688-13.76 0-3.243-.598-4.864-1.792-4.864z" fill="#2C2C2C"/>
  <path d="M159.056 73.352c.554 0 .981.277 1.28.832.298.555.448 1.259.448 2.112 0 2.048-.619 3.264-1.856 3.648-2.56.896-5.376 1.408-8.448 1.536-.811 3.584-2.411 6.464-4.8 8.64-2.39 2.133-5.099 3.2-8.128 3.2-2.56 0-4.758-.619-6.592-1.856-1.792-1.237-3.158-2.88-4.096-4.928-.939-2.048-1.408-4.267-1.408-6.656 0-3.243.618-6.123 1.856-8.64 1.237-2.56 2.944-4.544 5.12-5.952 2.176-1.45 4.586-2.176 7.232-2.176 3.242 0 5.845 1.13 7.808 3.392 2.005 2.219 3.178 4.97 3.52 8.256 2.005-.128 4.394-.555 7.168-1.28a3.76 3.76 0 01.896-.128zm-20.992 13.184c1.365 0 2.538-.555 3.52-1.664 1.024-1.11 1.706-2.71 2.048-4.8a9.077 9.077 0 01-3.072-3.52 10.686 10.686 0 01-1.024-4.608c0-.683.064-1.365.192-2.048h-.32c-1.707 0-3.136.832-4.288 2.496-1.11 1.621-1.664 3.925-1.664 6.912 0 2.347.448 4.139 1.344 5.376.938 1.237 2.026 1.856 3.264 1.856z" fill="#2C2C2C"/>
  <path d="M128.557 78.856c.554 0 .981.277 1.28.832.341.512.512 1.173.512 1.984 0 .981-.15 1.75-.448 2.304-.299.555-.768 1.045-1.408 1.472-2.518 1.664-6.528 4.395-12.032 8.192-1.664 8.832-3.819 15.787-6.464 20.864-2.646 5.077-5.995 7.616-10.048 7.616-2.176 0-3.947-.683-5.312-2.048-1.366-1.323-2.048-3.072-2.048-5.248 0-2.005.448-4.032 1.344-6.08.896-2.048 2.56-4.416 4.992-7.104 2.474-2.688 5.952-5.76 10.432-9.216l.192-1.216c-3.371 1.408-6.678 2.112-9.92 2.112-4.779 0-8.982-.917-12.608-2.752-3.627-1.877-6.443-4.523-8.448-7.936-2.006-3.413-3.008-7.381-3.008-11.904 0-6.315 1.194-11.883 3.584-16.704 2.39-4.864 5.674-8.619 9.856-11.264 4.224-2.688 8.938-4.032 14.144-4.032 4.992 0 8.725 1.173 11.2 3.52 2.517 2.304 3.776 5.376 3.776 9.216 0 2.517-.47 4.544-1.408 6.08-.896 1.493-2.198 2.24-3.904 2.24-1.152 0-2.091-.277-2.816-.832-.683-.555-1.024-1.323-1.024-2.304 0-.427.085-1.152.256-2.176.256-1.195.384-2.133.384-2.816 0-1.792-.555-3.179-1.664-4.16-1.067-.981-2.88-1.472-5.44-1.472-3.115 0-6.016.896-8.704 2.688-2.646 1.792-4.779 4.48-6.4 8.064-1.622 3.541-2.432 7.808-2.432 12.8 0 5.12 1.386 9.088 4.16 11.904 2.816 2.773 6.87 4.16 12.16 4.16 2.944 0 6.016-.661 9.216-1.984l.896-7.808h-6.528c-1.195 0-2.112-.277-2.752-.832-.64-.597-.96-1.557-.96-2.88 0-1.195.32-2.133.96-2.816.64-.683 1.493-1.024 2.56-1.024h11.968c.938 0 1.706.32 2.304.96.64.597.896 1.472.768 2.624-.128 1.365-.555 4.459-1.28 9.28l-.704 4.864c3.413-2.56 6.528-4.779 9.344-6.656.554-.341 1.045-.512 1.472-.512zm-27.904 37.056c1.109 0 2.325-1.259 3.648-3.776 1.322-2.517 2.56-6.571 3.712-12.16-3.243 2.773-5.59 5.269-7.04 7.488-1.408 2.261-2.112 4.245-2.112 5.952 0 1.664.597 2.496 1.792 2.496z" fill="#2C2C2C"/>
  <path d="M513.007 70.132a21.404 21.404 0 10-21.404-21.404v3.567h7.13v-3.567a14.27 14.27 0 018.812-13.187 14.27 14.27 0 0119.461 10.402 14.274 14.274 0 01-13.999 17.058v7.13zm29.959-24.969H558.3v7.13h-15.334zm-75.252 0h15.334v7.13h-15.334zm63.956-20.14l10.843-10.843 5.042 5.042-10.843 10.843zm5.042 42.368l10.843 10.843-5.042 5.042-10.843-10.843zM483.501 14.18l10.843 10.843-5.042 5.041-10.843-10.842zm33.071-10.745V18.77h-7.13V3.435z" fill="#FFA353"/>
</svg>
