<svg xmlns="http://www.w3.org/2000/svg" fill="none" viewBox="0 0 561 143"><path fill="#2c2c2c" d="M153.188 117v-16h9.922v2.078h-7.507v4.875h6.796v2.07h-6.796V117zm15.04-16v16h-2.336v-16zm8.197 16.242q-1.687 0-2.946-.773-1.257-.774-1.953-2.164-.695-1.391-.695-3.25 0-1.868.695-3.266.696-1.398 1.953-2.172 1.259-.773 2.946-.773t2.945.773q1.258.774 1.953 2.172t.696 3.266q0 1.859-.696 3.25-.695 1.39-1.953 2.164-1.257.773-2.945.773m.008-1.961q1.094 0 1.812-.578.718-.577 1.063-1.539a6.1 6.1 0 0 0 .351-2.117 6.1 6.1 0 0 0-.351-2.11q-.345-.968-1.063-1.554-.719-.586-1.812-.586-1.102 0-1.829.586-.718.586-1.07 1.554a6.2 6.2 0 0 0-.344 2.11q0 1.156.344 2.117.352.962 1.07 1.539.727.578 1.829.578M186.862 117l-3.531-12h2.414l2.352 8.812h.117l2.359-8.812h2.414l2.344 8.773h.117l2.336-8.773h2.414l-3.523 12h-2.383l-2.438-8.664h-.179L189.237 117zm20.36.242q-1.774 0-3.055-.758-1.273-.765-1.969-2.148-.687-1.39-.687-3.258 0-1.843.687-3.25.696-1.406 1.938-2.195 1.25-.789 2.922-.789 1.016 0 1.968.336a4.8 4.8 0 0 1 1.711 1.054q.758.72 1.196 1.868.437 1.14.437 2.773v.828h-9.539v-1.75h7.25q0-.921-.375-1.633a2.85 2.85 0 0 0-1.055-1.133q-.672-.414-1.578-.414-.984 0-1.719.485a3.26 3.26 0 0 0-1.125 1.25q-.39.765-.39 1.664v1.367q0 1.203.422 2.047.43.843 1.195 1.289.765.438 1.789.437.664 0 1.211-.187.548-.195.945-.578a2.5 2.5 0 0 0 .61-.945l2.211.398a4 4 0 0 1-.953 1.711q-.68.726-1.711 1.133-1.024.398-2.336.398m7.74-.242v-12h2.258v1.906h.125a2.9 2.9 0 0 1 1.156-1.523 3.3 3.3 0 0 1 1.891-.563 11 11 0 0 1 .992.055v2.234a4 4 0 0 0-.5-.086 5 5 0 0 0-.719-.054q-.828 0-1.477.351a2.61 2.61 0 0 0-1.39 2.352V117zm14.453 0v-16h9.922v2.078h-7.508v4.875h6.797v2.07h-6.797V117zm16.152.266q-1.14 0-2.062-.422a3.5 3.5 0 0 1-1.461-1.242q-.531-.813-.531-1.993 0-1.015.39-1.672a2.9 2.9 0 0 1 1.055-1.039 5.6 5.6 0 0 1 1.484-.578q.821-.195 1.672-.297l1.75-.203q.672-.086.977-.273t.305-.61v-.054q0-1.023-.579-1.586-.57-.563-1.703-.563-1.18 0-1.859.524-.672.516-.93 1.148l-2.195-.5q.39-1.093 1.141-1.765a4.6 4.6 0 0 1 1.742-.985 6.8 6.8 0 0 1 2.07-.312q.719 0 1.523.172a4.5 4.5 0 0 1 1.516.609q.711.445 1.164 1.273.453.82.453 2.133V117h-2.281v-1.641h-.094a3.3 3.3 0 0 1-.679.891q-.455.438-1.164.727-.711.288-1.704.289m.508-1.875q.969 0 1.656-.383a2.7 2.7 0 0 0 1.055-1q.367-.625.367-1.336v-1.547q-.124.124-.484.234a7 7 0 0 1-.805.18q-.453.07-.883.133-.43.054-.718.094a5.7 5.7 0 0 0-1.242.289q-.555.202-.891.586-.328.375-.328 1 0 .867.64 1.312.641.438 1.633.438m8.526 1.609v-12h2.257v1.906h.125a2.9 2.9 0 0 1 1.157-1.523 3.3 3.3 0 0 1 1.89-.563 11 11 0 0 1 .992.055v2.234a4 4 0 0 0-.5-.086 5 5 0 0 0-.718-.054q-.829 0-1.477.351a2.61 2.61 0 0 0-1.39 2.352V117zm8.443 0v-12h2.242v1.953h.149a3.1 3.1 0 0 1 1.226-1.547q.852-.562 2.039-.562 1.203 0 2.016.562.82.563 1.211 1.547h.125a3.37 3.37 0 0 1 1.367-1.531q.938-.578 2.234-.578 1.633 0 2.664 1.023 1.04 1.023 1.039 3.086V117h-2.335v-7.828q0-1.219-.665-1.766-.663-.546-1.585-.547-1.141 0-1.774.703-.633.695-.633 1.79V117h-2.328v-7.977q0-.976-.609-1.57-.61-.594-1.586-.594-.664 0-1.227.352-.555.343-.898.961-.336.617-.336 1.43V117zm28.758.266q-1.141 0-2.063-.422a3.5 3.5 0 0 1-1.461-1.242q-.531-.813-.531-1.993 0-1.015.391-1.672.39-.655 1.054-1.039a5.6 5.6 0 0 1 1.485-.578q.82-.195 1.672-.297l1.75-.203q.672-.086.976-.273.305-.187.305-.61v-.054q0-1.023-.578-1.586-.57-.563-1.703-.563-1.18 0-1.86.524-.672.516-.929 1.148l-2.196-.5q.391-1.093 1.141-1.765a4.6 4.6 0 0 1 1.742-.985 6.8 6.8 0 0 1 2.07-.312q.72 0 1.524.172a4.5 4.5 0 0 1 1.515.609q.71.445 1.165 1.273.453.82.453 2.133V117h-2.282v-1.641h-.093a3.3 3.3 0 0 1-.68.891q-.453.438-1.164.727-.711.288-1.703.289m.508-1.875q.968 0 1.656-.383a2.7 2.7 0 0 0 1.055-1q.367-.625.367-1.336v-1.547q-.125.124-.485.234a7 7 0 0 1-.804.18q-.453.07-.883.133-.43.054-.719.094a5.7 5.7 0 0 0-1.242.289q-.555.202-.891.586-.327.375-.328 1 0 .867.641 1.312.64.438 1.633.438m10.861-5.516V117h-2.336v-12h2.242v1.953h.149a3.43 3.43 0 0 1 1.296-1.531q.891-.578 2.243-.578 1.226 0 2.148.515.922.508 1.43 1.516t.508 2.492V117h-2.336v-7.352q0-1.304-.68-2.039-.68-.741-1.867-.742-.813 0-1.446.352a2.53 2.53 0 0 0-.992 1.031q-.359.672-.359 1.625m15.305 7.359q-1.454 0-2.594-.742-1.133-.75-1.781-2.133-.64-1.39-.641-3.336 0-1.945.648-3.328.657-1.382 1.797-2.117 1.142-.734 2.586-.734 1.118 0 1.797.375.688.367 1.063.859.383.492.593.867h.141V101h2.336v16h-2.281v-1.867h-.196q-.21.383-.609.875-.39.492-1.078.859-.687.367-1.781.367m.515-1.992q1.008 0 1.703-.531.703-.539 1.063-1.492.367-.954.367-2.219 0-1.25-.359-2.188-.36-.937-1.055-1.46-.695-.524-1.719-.524-1.054 0-1.758.547-.703.547-1.062 1.492-.351.945-.352 2.133 0 1.203.36 2.164.358.961 1.062 1.523.712.555 1.75.555M333.765 101h2.929l5.094 12.437h.188L347.069 101h2.93v16h-2.297v-11.578h-.148l-4.719 11.555h-1.906l-4.719-11.563h-.148V117h-2.297zm23.048 16.266q-1.14 0-2.062-.422a3.5 3.5 0 0 1-1.461-1.242q-.531-.813-.531-1.993 0-1.015.39-1.672a2.9 2.9 0 0 1 1.055-1.039 5.6 5.6 0 0 1 1.484-.578q.821-.195 1.672-.297l1.75-.203q.672-.085.977-.273.305-.187.305-.61v-.054q0-1.023-.579-1.586-.57-.563-1.703-.563-1.18 0-1.859.524-.672.516-.93 1.148l-2.195-.5q.39-1.093 1.141-1.765a4.6 4.6 0 0 1 1.742-.985 6.8 6.8 0 0 1 2.07-.312q.719 0 1.524.172a4.5 4.5 0 0 1 1.515.609q.711.445 1.164 1.273.453.82.453 2.133V117h-2.281v-1.641h-.094a3.3 3.3 0 0 1-.679.891q-.453.438-1.164.727-.711.288-1.704.289m.508-1.875q.969 0 1.657-.383a2.7 2.7 0 0 0 1.054-1q.367-.625.367-1.336v-1.547q-.124.125-.484.234a7 7 0 0 1-.805.18q-.453.07-.882.133-.43.055-.719.094a5.7 5.7 0 0 0-1.242.289q-.555.202-.891.586-.328.375-.328 1 0 .867.64 1.312.642.438 1.633.438m8.526 1.609v-12h2.257v1.906h.125a2.9 2.9 0 0 1 1.157-1.523 3.3 3.3 0 0 1 1.89-.563 11 11 0 0 1 .993.055v2.234a4 4 0 0 0-.5-.086 5 5 0 0 0-.719-.054q-.828 0-1.477.351a2.61 2.61 0 0 0-1.39 2.352V117zm10.591-4.07-.015-2.852h.406L381.61 105h2.797l-5.453 5.781h-.367zM374.29 117v-16h2.336v16zm7.578 0-4.297-5.703 1.61-1.633 5.554 7.336zm9.346.242q-1.773 0-3.055-.758-1.273-.765-1.969-2.148-.687-1.39-.687-3.258 0-1.843.687-3.25.696-1.406 1.938-2.195 1.25-.789 2.922-.789 1.015 0 1.969.336a4.8 4.8 0 0 1 1.71 1.054q.758.72 1.196 1.868.437 1.14.437 2.773v.828h-9.539v-1.75h7.25q0-.921-.375-1.633a2.84 2.84 0 0 0-1.054-1.133q-.672-.414-1.579-.414-.984 0-1.718.485a3.24 3.24 0 0 0-1.125 1.25 3.6 3.6 0 0 0-.391 1.664v1.367q0 1.203.422 2.047.43.843 1.195 1.289.766.438 1.789.437.665 0 1.211-.187.547-.195.946-.578a2.5 2.5 0 0 0 .609-.945l2.211.398a4 4 0 0 1-.953 1.711q-.68.726-1.711 1.133-1.023.398-2.336.398M404.556 105v1.875h-6.555V105zm-4.797-2.875h2.336v11.352q0 .68.203 1.023.203.336.523.461.329.117.711.117.282 0 .492-.039l.329-.062.421 1.929a4 4 0 0 1-.578.157q-.375.085-.937.093a4.1 4.1 0 0 1-1.719-.328 2.95 2.95 0 0 1-1.289-1.062q-.492-.72-.492-1.805zm113.248-31.877c-.171 1.323-.875 3.36-1.771 8.864q-.96 5.568-1.216 7.36-2.433 16.512-6.592 26.048-4.096 9.6-11.008 9.6-3.264 0-5.312-2.048-2.048-1.984-2.048-5.248 0-4.544 3.584-9.792 3.584-5.184 13.44-12.8l.384-2.496a7.6 7.6 0 0 1-2.88 2.688q-1.728.896-3.456.896-3.969 0-6.336-2.88t-2.368-7.552q0-5.12 2.368-9.664 2.367-4.608 6.272-7.36 3.968-2.816 8.384-2.816c.938 0 2.048-.048 3.548-.048h5.007zm-14.571 16.608q1.472 0 2.816-1.792t1.92-5.12l1.786-9.696c-1.749.043-3.609.191-5.102 1.514-1.493 1.28-2.188 2.273-3.084 4.406q-1.344 3.2-1.344 6.784 0 1.984.768 2.944.831.96 2.24.96m-5.312 29.056q1.6 0 3.584-3.84 2.047-3.84 3.904-12.224-4.929 4.224-7.104 7.616-2.176 3.391-2.176 5.952 0 1.088.384 1.792.447.704 1.408.704"/><path fill="#2c2c2c" d="M461.054 93.32q-2.433 0-3.456-2.56-.96-2.56-.96-8.192 0-8.32 2.368-15.808.576-1.856 1.856-2.688 1.344-.896 3.712-.896 1.28 0 1.792.32t.512 1.216q0 1.025-.96 4.608a98 98 0 0 0-1.024 4.48q-.385 1.92-.64 4.736 2.111-5.505 4.736-8.96t5.12-4.928q2.56-1.472 4.672-1.472 4.16 0 4.16 4.16 0 2.496-1.408 9.024-1.216 5.568-1.216 7.36 0 2.56 1.856 2.56 1.28 0 3.008-1.536 1.791-1.6 4.736-5.12.768-.896 1.728-.896.831 0 1.28.768.512.768.512 2.112 0 2.56-1.216 3.968-2.752 3.392-5.952 5.568-3.136 2.175-7.168 2.176-3.264 0-4.928-1.856-1.665-1.92-1.664-5.504 0-1.792.896-6.4.832-4.032.832-5.568 0-1.024-.704-1.024-.832 0-2.368 2.176-1.473 2.112-3.072 5.632a46 46 0 0 0-2.496 7.424q-.705 3.007-1.664 4.096-.897 1.024-2.88 1.024"/><path fill="#2c2c2c" d="M449.144 58.952q-2.688 0-4.032-1.216-1.344-1.28-1.344-3.52t1.728-3.712q1.791-1.536 4.416-1.536 2.367 0 3.84 1.152t1.472 3.264q0 2.56-1.664 4.096-1.665 1.472-4.416 1.472m-.512 34.368q-4.16 0-6.08-2.944-1.856-2.944-1.856-7.808 0-2.88.704-7.36.768-4.544 1.92-8.448.576-2.048 1.536-2.816c.96-.768 1.664-.768 3.072-.768q3.264 0 3.264 2.176 0 1.6-1.216 7.424-1.536 7.04-1.536 9.536 0 1.92.512 2.944.511 1.024 1.728 1.024 1.152 0 2.88-1.6t4.608-5.056q.768-.896 1.728-.896.831 0 1.28.768.512.768.512 2.112 0 2.56-1.216 3.968-6.336 7.744-11.84 7.744"/><path fill="#2c2c2c" d="M413.554 93.32q-2.433 0-3.456-2.56-.96-2.56-.96-8.192 0-8.32 2.368-15.808.576-1.856 1.856-2.688 1.344-.896 3.712-.896 1.28 0 1.792.32t.512 1.216q0 1.025-.96 4.608a98 98 0 0 0-1.024 4.48q-.385 1.92-.64 4.736 2.111-5.505 4.736-8.96t5.12-4.928q2.56-1.472 4.672-1.472 4.16 0 4.16 4.16 0 2.496-1.408 9.024-1.216 5.568-1.216 7.36 0 2.56 1.856 2.56 1.28 0 3.008-1.536 1.791-1.6 4.736-5.12.768-.896 1.728-.896.831 0 1.28.768.512.768.512 2.112 0 2.56-1.216 3.968-2.752 3.392-5.952 5.568-3.136 2.175-7.168 2.176-3.264 0-4.928-1.856-1.665-1.92-1.664-5.504 0-1.792.896-6.4.832-4.032.832-5.568 0-1.024-.704-1.024-.832 0-2.368 2.176-1.473 2.112-3.072 5.632a46 46 0 0 0-2.496 7.424q-.705 3.007-1.664 4.096-.897 1.024-2.88 1.024"/><path fill="#2c2c2c" d="M384.429 93.32q-2.433 0-3.456-2.56-.96-2.56-.96-8.192 0-8.32 2.368-15.808.576-1.856 1.856-2.688 1.344-.896 3.712-.896 1.28 0 1.792.32t.512 1.216q0 1.025-.96 4.608a98 98 0 0 0-1.024 4.48q-.385 1.92-.64 4.736 2.111-5.505 4.736-8.96t5.12-4.928q2.56-1.472 4.672-1.472 4.16 0 4.16 4.16 0 .832-.576 4.032-.512 2.56-.512 3.2 0 2.24 1.6 2.24 1.791 0 4.608-2.816.831-.832 1.728-.832.831 0 1.28.768.512.705.512 1.92 0 2.368-1.28 3.712-1.793 1.856-4.224 3.2a10.5 10.5 0 0 1-5.056 1.28q-3.393 0-5.184-1.728-1.728-1.728-1.728-4.672 0-.96.192-1.92.128-1.28.128-1.728 0-1.024-.704-1.024-.96 0-2.56 2.176-1.536 2.112-3.072 5.632a46 46 0 0 0-2.496 7.424q-.704 3.007-1.664 4.096-.897 1.024-2.88 1.024"/><path fill="#2c2c2c" d="M383.65 73.352q.831 0 1.28.832.447.833.448 2.112 0 3.072-1.856 3.648-3.84 1.344-8.448 1.536-1.216 5.376-4.8 8.64-3.585 3.2-8.128 3.2-3.84 0-6.592-1.856-2.688-1.856-4.096-4.928t-1.408-6.656q0-4.865 1.856-8.64 1.856-3.84 5.12-5.952 3.263-2.175 7.232-2.176 4.863 0 7.808 3.392 3.007 3.328 3.52 8.256 3.007-.192 7.168-1.28a3.8 3.8 0 0 1 .896-.128m-20.992 13.184q2.047 0 3.52-1.664 1.536-1.665 2.048-4.8a9.1 9.1 0 0 1-3.072-3.52 10.7 10.7 0 0 1-1.024-4.608q0-1.024.192-2.048h-.32q-2.56 0-4.288 2.496-1.664 2.432-1.664 6.912 0 3.52 1.344 5.376 1.407 1.856 3.264 1.856"/><path fill="#2c2c2c" d="M283.911 93.32q-2.369 0-3.392-1.024-1.024-1.088-1.024-4.032 0-1.984.384-5.056.447-3.136 1.408-8.576 1.664-10.048 2.624-17.408.576-4.608.576-7.68 0-2.88-2.112-2.88-1.665 0-4.032 1.728-2.304 1.664-5.12 5.376-.897 1.215-1.984 1.216-.897 0-1.6-.832a3.33 3.33 0 0 1-.64-1.984q0-1.024.384-2.048.447-1.088 1.408-2.432 3.071-4.288 6.848-6.592 3.775-2.368 7.552-2.368 3.519 0 5.376 2.24 1.92 2.24 1.92 6.528 0 1.728-.32 4.096a120 120 0 0 1-.576 3.776 54 54 0 0 1-.384 2.048q3.647-10.432 8.192-14.528 4.544-4.16 9.984-4.16 4.16 0 6.528 2.944 2.432 2.944 2.432 8.32 0 2.112-.576 5.248 3.2-8.832 7.488-12.672t9.856-3.84q4.48 0 6.848 2.88 2.432 2.88 2.432 8.064 0 2.816-.832 6.848l-3.904 18.304q-.64 3.2-.64 5.504 0 2.688 1.216 4.032 1.28 1.344 3.52 1.344 2.112 0 4.096-1.408 2.047-1.408 4.8-4.672.768-.896 1.728-.896.831 0 1.28.768.512.768.512 2.112 0 2.496-1.216 3.968-3.328 4.031-6.592 5.888-3.264 1.856-6.848 1.856-5.44 0-8.512-3.2-3.072-3.264-3.072-8.704 0-3.775 1.536-10.944l2.56-11.712.448-2.048q.32-1.472.512-2.752.192-1.344.192-2.624 0-2.24-.896-3.328-.833-1.152-2.432-1.152-3.009 0-6.336 3.904-3.264 3.84-6.272 12.8-2.945 8.96-4.8 23.296-.448 3.84-1.6 5.184-1.089 1.28-3.584 1.28-2.177 0-3.2-1.024-.96-1.024-.96-3.84 0-2.624.704-6.848a428 428 0 0 1 1.792-10.048q2.943-15.487 2.944-19.968 0-2.432-.96-3.584-.897-1.152-2.752-1.152-3.137 0-6.464 3.584-3.329 3.52-6.528 12.608-3.136 9.024-5.248 24.448-.448 3.263-1.344 4.544-.832 1.28-3.328 1.28m-45.764 0q-2.432 0-3.456-2.56-.96-2.56-.96-8.192 0-8.32 2.368-15.808.576-1.856 1.856-2.688 1.344-.896 3.712-.896 1.28 0 1.792.32.513.32.512 1.216 0 1.025-.96 4.608a99 99 0 0 0-1.024 4.48q-.384 1.92-.64 4.736 2.112-5.505 4.736-8.96t5.12-4.928q2.56-1.472 4.672-1.472 2.049 0 3.072 1.088 1.089 1.024 1.088 3.072 0 1.665-.704 6.272a140 140 0 0 0-1.024 7.424q-.384 3.456-.384 7.744 0 2.432-1.024 3.52-.96 1.024-3.2 1.024-2.112 0-3.072-1.088-.96-1.087-.96-3.264 0-2.56.896-8.448.768-5.12.768-6.528 0-1.024-.704-1.024-.831 0-2.368 2.176-1.471 2.112-3.072 5.632a46 46 0 0 0-2.496 7.424q-.704 3.007-1.664 4.096-.895 1.024-2.88 1.024"/><path fill="#2c2c2c" d="M237.022 78.728q.833 0 1.28.768.513.768.512 2.112 0 2.56-1.216 3.968-2.367 2.88-6.72 5.312a18.4 18.4 0 0 1-9.216 2.432q-6.72 0-10.432-3.648t-3.712-9.984q0-4.416 1.856-8.192 1.856-3.84 5.12-6.08 3.328-2.24 7.488-2.24 3.713 0 5.952 2.24 2.24 2.176 2.24 5.952 0 4.416-3.2 7.616-3.135 3.136-10.688 4.992 1.6 2.944 6.08 2.944 2.88 0 6.528-1.984a22 22 0 0 0 6.4-5.312q.768-.896 1.728-.896m-16.128-9.28q-2.367 0-4.032 2.752-1.6 2.752-1.6 6.656v.128q3.777-.895 5.952-2.688 2.176-1.792 2.176-4.16 0-1.215-.704-1.92-.64-.768-1.792-.768"/><path fill="#2c2c2c" d="M211.893 78.728q.831 0 1.28.768.512.768.512 2.112 0 2.56-1.216 3.968-2.625 3.2-5.76 5.504-3.136 2.24-6.208 2.24-4.865 0-7.424-5.696-2.688 3.392-4.736 4.544-1.984 1.152-4.672 1.152-3.905 0-6.464-2.88-2.496-2.944-2.496-7.616 0-5.12 2.176-9.472 2.175-4.416 5.952-7.168a17.4 17.4 0 0 1 8.576-3.328q1.215-12.416 4.608-21.184 3.456-8.832 9.024-8.832 2.751 0 4.544 2.496 1.856 2.496 1.856 7.552 0 7.168-3.52 16.768t-9.408 19.712q.255 3.712 1.088 5.312.896 1.6 2.24 1.6 1.728 0 3.52-1.536 1.791-1.535 4.8-5.12.768-.896 1.728-.896m-7.552-39.616q-1.217 0-2.432 4.352-1.216 4.288-2.112 11.264-.832 6.976-1.216 14.592 7.167-15.615 7.168-25.088 0-2.432-.448-3.776-.384-1.344-.96-1.344m-18.432 47.744q1.215 0 2.432-.96 1.215-1.024 3.072-3.712-.64-3.456-.64-7.744 0-1.536.128-4.992-3.52 1.088-5.888 4.736-2.304 3.584-2.304 8 0 4.672 3.2 4.672"/><path fill="#2c2c2c" d="M179.547 78.728q.831 0 1.28.768.512.768.512 2.112 0 2.56-1.216 3.968-2.752 3.392-6.016 5.568-3.201 2.175-7.296 2.176-5.633 0-8.384-5.12-2.688-5.12-2.688-13.248 0-7.808 1.984-17.792 2.047-9.984 5.952-17.152 3.968-7.168 9.408-7.168 3.072 0 4.8 2.88 1.791 2.816 1.792 8.128 0 7.615-4.224 17.664-4.224 10.048-11.456 19.904.447 2.624 1.472 3.776 1.023 1.088 2.688 1.088 2.624 0 4.608-1.472 1.984-1.536 5.056-5.184.768-.896 1.728-.896m-7.872-39.552q-1.473 0-3.328 5.312-1.857 5.312-3.264 13.184-1.408 7.872-1.536 15.104 4.544-7.488 7.232-14.976 2.688-7.552 2.688-13.76 0-4.864-1.792-4.864"/><path fill="#2c2c2c" d="M159.056 73.352q.831 0 1.28.832.448.833.448 2.112 0 3.072-1.856 3.648-3.84 1.344-8.448 1.536-1.216 5.376-4.8 8.64-3.585 3.2-8.128 3.2-3.84 0-6.592-1.856-2.689-1.856-4.096-4.928t-1.408-6.656q0-4.865 1.856-8.64 1.856-3.84 5.12-5.952 3.263-2.175 7.232-2.176 4.863 0 7.808 3.392 3.007 3.328 3.52 8.256 3.007-.192 7.168-1.28a3.8 3.8 0 0 1 .896-.128m-20.992 13.184q2.047 0 3.52-1.664 1.535-1.665 2.048-4.8a9.1 9.1 0 0 1-3.072-3.52 10.7 10.7 0 0 1-1.024-4.608q0-1.024.192-2.048h-.32q-2.56 0-4.288 2.496-1.664 2.432-1.664 6.912 0 3.52 1.344 5.376 1.407 1.856 3.264 1.856"/><path fill="#2c2c2c" d="M128.557 78.856q.831 0 1.28.832.512.768.512 1.984 0 1.472-.448 2.304t-1.408 1.472q-3.777 2.496-12.032 8.192-2.496 13.248-6.464 20.864t-10.048 7.616q-3.264 0-5.312-2.048-2.049-1.984-2.048-5.248 0-3.008 1.344-6.08t4.992-7.104q3.711-4.032 10.432-9.216l.192-1.216q-5.057 2.112-9.92 2.112-7.169 0-12.608-2.752-5.44-2.816-8.448-7.936t-3.008-11.904q0-9.472 3.584-16.704 3.584-7.296 9.856-11.264 6.335-4.032 14.144-4.032 7.488 0 11.2 3.52 3.776 3.456 3.776 9.216 0 3.776-1.408 6.08-1.344 2.24-3.904 2.24-1.728 0-2.816-.832-1.024-.833-1.024-2.304 0-.64.256-2.176.384-1.792.384-2.816 0-2.688-1.664-4.16-1.6-1.472-5.44-1.472-4.672 0-8.704 2.688-3.969 2.688-6.4 8.064-2.432 5.312-2.432 12.8 0 7.68 4.16 11.904 4.225 4.16 12.16 4.16 4.416 0 9.216-1.984l.896-7.808h-6.528q-1.792 0-2.752-.832-.96-.895-.96-2.88 0-1.792.96-2.816t2.56-1.024h11.968q1.407 0 2.304.96.96.896.768 2.624-.192 2.048-1.28 9.28l-.704 4.864q5.12-3.84 9.344-6.656.831-.512 1.472-.512m-27.904 37.056q1.663 0 3.648-3.776 1.984-3.776 3.712-12.16-4.865 4.16-7.04 7.488-2.112 3.391-2.112 5.952 0 2.496 1.792 2.496"/><path fill="#ffa353" d="M513.007 70.132a21.404 21.404 0 1 0-21.404-21.404v3.567h7.13v-3.567a14.27 14.27 0 0 1 8.812-13.187 14.27 14.27 0 0 1 19.461 10.402 14.274 14.274 0 0 1-13.999 17.058zm29.959-24.969H558.3v7.13h-15.334zm-75.252 0h15.334v7.13h-15.334zm63.956-20.14 10.843-10.843 5.042 5.042-10.843 10.843zm5.042 42.368 10.843 10.843-5.042 5.042-10.843-10.843zM483.501 14.18l10.843 10.843-5.042 5.041-10.843-10.842zm33.071-10.745V18.77h-7.13V3.435z"/></svg>