<svg xmlns="http://www.w3.org/2000/svg" fill="none" viewBox="0 0 184 185"><path fill="#2c2c2c" d="M88.181 146.379q-3.108 0-4.452-1.344-1.344-1.428-1.344-5.292 0-2.604.504-6.636.588-4.116 1.848-11.256 2.184-13.188 3.444-22.848.756-6.048.756-10.08 0-3.78-2.772-3.78-2.184 0-5.292 2.268-3.024 2.184-6.72 7.056-1.176 1.596-2.604 1.596-1.176 0-2.1-1.092a4.38 4.38 0 0 1-.84-2.604q0-1.344.504-2.688.588-1.428 1.848-3.192 4.032-5.628 8.988-8.652 4.956-3.108 9.912-3.108 4.62 0 7.056 2.94 2.52 2.94 2.52 8.568 0 2.268-.42 5.376-.42 3.024-.756 4.956a69 69 0 0 1-.504 2.688q4.788-13.692 10.752-19.068 5.964-5.46 13.104-5.46 5.46 0 8.568 3.864 3.192 3.864 3.192 10.92 0 2.772-.756 6.888 4.2-11.592 9.828-16.632t12.936-5.04q5.88 0 8.988 3.78 3.192 3.78 3.192 10.584 0 3.696-1.092 8.988l-5.124 24.024q-.84 4.2-.84 7.224 0 3.528 1.596 5.292 1.68 1.764 4.62 1.764 2.772 0 5.376-1.848 2.688-1.848 6.3-6.132 1.008-1.176 2.268-1.176 1.092 0 1.68 1.008.672 1.008.672 2.772 0 3.276-1.596 5.208-4.368 5.292-8.652 7.728t-8.988 2.436q-7.14 0-11.172-4.2-4.032-4.284-4.032-11.424 0-4.956 2.016-14.364l3.36-15.372q.168-.756.588-2.688t.672-3.612q.252-1.764.252-3.444 0-2.94-1.176-4.368-1.092-1.512-3.192-1.512-3.948 0-8.316 5.124-4.284 5.04-8.232 16.8-3.864 11.76-6.3 30.576-.588 5.04-2.1 6.804-1.428 1.68-4.704 1.68-2.856 0-4.2-1.344-1.26-1.344-1.26-5.04 0-3.444.924-8.988.924-5.628 2.352-13.188 3.864-20.328 3.864-26.208 0-3.192-1.26-4.704-1.176-1.512-3.612-1.512-4.116 0-8.484 4.704-4.368 4.62-8.568 16.548-4.116 11.844-6.888 32.088-.588 4.284-1.764 5.964-1.092 1.68-4.368 1.68m-17.646-18.984q1.092 0 1.68 1.092.672 1.008.672 2.604 0 1.932-.588 3.024t-1.848 1.932q-4.956 3.276-15.792 10.752-3.276 17.388-8.484 27.384t-13.188 9.996q-4.284 0-6.972-2.688-2.688-2.604-2.688-6.888 0-3.948 1.764-7.98t6.552-9.324q4.872-5.292 13.692-12.096l.252-1.596q-6.636 2.772-13.02 2.772-9.408 0-16.548-3.612-7.14-3.696-11.088-10.416T.983 116.727q0-12.432 4.704-21.924 4.704-9.576 12.936-14.784 8.316-5.292 18.564-5.292 9.828 0 14.7 4.62 4.956 4.536 4.956 12.096 0 4.956-1.848 7.98-1.764 2.94-5.124 2.94-2.268 0-3.696-1.092-1.344-1.092-1.344-3.024 0-.84.336-2.856.504-2.352.504-3.696 0-3.528-2.184-5.46-2.1-1.932-7.14-1.932-6.132 0-11.424 3.528-5.208 3.528-8.4 10.584-3.192 6.972-3.192 16.8 0 10.08 5.46 15.624 5.544 5.46 15.96 5.46 5.796 0 12.096-2.604l1.176-10.248h-8.568q-2.352 0-3.612-1.092-1.26-1.176-1.26-3.78 0-2.352 1.26-3.696t3.36-1.344h15.708q1.848 0 3.024 1.26 1.26 1.176 1.008 3.444-.252 2.688-1.68 12.18l-.924 6.384q6.72-5.04 12.264-8.736 1.092-.672 1.932-.672m-36.624 48.636q2.184 0 4.788-4.956t4.872-15.96q-6.384 5.46-9.24 9.828-2.772 4.452-2.772 7.812 0 3.276 2.352 3.276"/><path fill="#ffa353" d="M123.789 65.544c0-4.072-.797-11.103-2.346-14.865a31 31 0 0 0-6.681-10.058 30.8 30.8 0 0 0-9.998-6.72 30.66 30.66 0 0 0-23.587 0 30.8 30.8 0 0 0-9.998 6.72 31 31 0 0 0-6.681 10.058c-1.549 3.762-2.346 10.793-2.346 14.865h10.35c0-2.704.53-8.382 1.559-10.88a20.6 20.6 0 0 1 4.436-6.68 20.5 20.5 0 0 1 6.64-4.464 20.36 20.36 0 0 1 15.666 0 20.5 20.5 0 0 1 6.641 4.464 20.6 20.6 0 0 1 4.436 6.68c1.029 2.498 1.559 8.176 1.559 10.88zm9.082-10.462h20.88v10.285h-20.88zm-102.622 0h20.88v10.285h-20.88zm87.015-25.394 14.764-14.764 7.273 7.272-14.765 14.765zm-30.406-8.334V.474h10.285v20.88zM59.464 36.96 44.699 22.197l7.273-7.272 14.764 14.764z"/></svg>