<svg fill="none" xmlns="http://www.w3.org/2000/svg" viewBox="0 0 184 185">
  <path d="M88.181 146.379c-2.072 0-3.556-.448-4.452-1.344-.896-.952-1.344-2.716-1.344-5.292 0-1.736.168-3.948.504-6.636.392-2.744 1.008-6.496 1.848-11.256 1.456-8.792 2.604-16.408 3.444-22.848.504-4.032.756-7.392.756-10.08 0-2.52-.924-3.78-2.772-3.78-1.456 0-3.22.756-5.292 2.268-2.016 1.456-4.256 3.808-6.72 7.056-.784 1.064-1.652 1.596-2.604 1.596-.784 0-1.484-.364-2.1-1.092a4.379 4.379 0 01-.84-2.604c0-.896.168-1.792.504-2.688.392-.952 1.008-2.016 1.848-3.192 2.688-3.752 5.684-6.636 8.988-8.652 3.304-2.072 6.608-3.108 9.912-3.108 3.08 0 5.432.98 7.056 2.94 1.68 1.96 2.52 4.816 2.52 8.568 0 1.512-.14 3.304-.42 5.376-.28 2.016-.532 3.668-.756 4.956a69.068 69.068 0 01-.504 2.688c3.192-9.128 6.776-15.484 10.752-19.068 3.976-3.64 8.344-5.46 13.104-5.46 3.64 0 6.496 1.288 8.568 3.864 2.128 2.576 3.192 6.216 3.192 10.92 0 1.848-.252 4.144-.756 6.888 2.8-7.728 6.076-13.272 9.828-16.632 3.752-3.36 8.064-5.04 12.936-5.04 3.92 0 6.916 1.26 8.988 3.78 2.128 2.52 3.192 6.048 3.192 10.584 0 2.464-.364 5.46-1.092 8.988l-5.124 24.024c-.56 2.8-.84 5.208-.84 7.224 0 2.352.532 4.116 1.596 5.292 1.12 1.176 2.66 1.764 4.62 1.764 1.848 0 3.64-.616 5.376-1.848 1.792-1.232 3.892-3.276 6.3-6.132.672-.784 1.428-1.176 2.268-1.176.728 0 1.288.336 1.68 1.008.448.672.672 1.596.672 2.772 0 2.184-.532 3.92-1.596 5.208-2.912 3.528-5.796 6.104-8.652 7.728-2.856 1.624-5.852 2.436-8.988 2.436-4.76 0-8.484-1.4-11.172-4.2-2.688-2.856-4.032-6.664-4.032-11.424 0-3.304.672-8.092 2.016-14.364l3.36-15.372c.112-.504.308-1.4.588-2.688.28-1.288.504-2.492.672-3.612.168-1.176.252-2.324.252-3.444 0-1.96-.392-3.416-1.176-4.368-.728-1.008-1.792-1.512-3.192-1.512-2.632 0-5.404 1.708-8.316 5.124-2.856 3.36-5.6 8.96-8.232 16.8-2.576 7.84-4.676 18.032-6.3 30.576-.392 3.36-1.092 5.628-2.1 6.804-.952 1.12-2.52 1.68-4.704 1.68-1.904 0-3.304-.448-4.2-1.344-.84-.896-1.26-2.576-1.26-5.04 0-2.296.308-5.292.924-8.988.616-3.752 1.4-8.148 2.352-13.188 2.576-13.552 3.864-22.288 3.864-26.208 0-2.128-.42-3.696-1.26-4.704-.784-1.008-1.988-1.512-3.612-1.512-2.744 0-5.572 1.568-8.484 4.704-2.912 3.08-5.768 8.596-8.568 16.548-2.744 7.896-5.04 18.592-6.888 32.088-.392 2.856-.98 4.844-1.764 5.964-.728 1.12-2.184 1.68-4.368 1.68zm-17.646-18.984c.728 0 1.288.364 1.68 1.092.448.672.672 1.54.672 2.604 0 1.288-.196 2.296-.588 3.024-.392.728-1.008 1.372-1.848 1.932-3.304 2.184-8.568 5.768-15.792 10.752-2.184 11.592-5.012 20.72-8.484 27.384-3.472 6.664-7.868 9.996-13.188 9.996-2.856 0-5.18-.896-6.972-2.688-1.792-1.736-2.688-4.032-2.688-6.888 0-2.632.588-5.292 1.764-7.98 1.176-2.688 3.36-5.796 6.552-9.324 3.248-3.528 7.812-7.56 13.692-12.096l.252-1.596c-4.424 1.848-8.764 2.772-13.02 2.772-6.272 0-11.788-1.204-16.548-3.612-4.76-2.464-8.456-5.936-11.088-10.416-2.632-4.48-3.948-9.688-3.948-15.624 0-8.288 1.568-15.596 4.704-21.924 3.136-6.384 7.448-11.312 12.936-14.784 5.544-3.528 11.732-5.292 18.564-5.292 6.552 0 11.452 1.54 14.7 4.62 3.304 3.024 4.956 7.056 4.956 12.096 0 3.304-.616 5.964-1.848 7.98-1.176 1.96-2.884 2.94-5.124 2.94-1.512 0-2.744-.364-3.696-1.092-.896-.728-1.344-1.736-1.344-3.024 0-.56.112-1.512.336-2.856.336-1.568.504-2.8.504-3.696 0-2.352-.728-4.172-2.184-5.46-1.4-1.288-3.78-1.932-7.14-1.932-4.088 0-7.896 1.176-11.424 3.528-3.472 2.352-6.272 5.88-8.4 10.584-2.128 4.648-3.192 10.248-3.192 16.8 0 6.72 1.82 11.928 5.46 15.624 3.696 3.64 9.016 5.46 15.96 5.46 3.864 0 7.896-.868 12.096-2.604l1.176-10.248h-8.568c-1.568 0-2.772-.364-3.612-1.092-.84-.784-1.26-2.044-1.26-3.78 0-1.568.42-2.8 1.26-3.696.84-.896 1.96-1.344 3.36-1.344h15.708c1.232 0 2.24.42 3.024 1.26.84.784 1.176 1.932 1.008 3.444-.168 1.792-.728 5.852-1.68 12.18l-.924 6.384c4.48-3.36 8.568-6.272 12.264-8.736.728-.448 1.372-.672 1.932-.672zm-36.624 48.636c1.456 0 3.052-1.652 4.788-4.956 1.736-3.304 3.36-8.624 4.872-15.96-4.256 3.64-7.336 6.916-9.24 9.828-1.848 2.968-2.772 5.572-2.772 7.812 0 2.184.784 3.276 2.352 3.276z" fill="#2C2C2C"/>
  <path d="M123.789 65.544c0-4.072-.797-11.103-2.346-14.865a31.017 31.017 0 00-6.681-10.058 30.8 30.8 0 00-9.998-6.72 30.659 30.659 0 00-23.587 0 30.809 30.809 0 00-9.998 6.72 31.017 31.017 0 00-6.681 10.058c-1.549 3.762-2.346 10.793-2.346 14.865h10.35c0-2.704.53-8.382 1.559-10.88a20.6 20.6 0 014.436-6.68 20.462 20.462 0 016.64-4.464 20.362 20.362 0 0115.666 0 20.46 20.46 0 016.641 4.464 20.597 20.597 0 014.436 6.68c1.029 2.498 1.559 8.176 1.559 10.88h10.35zm9.082-10.462h20.88v10.285h-20.88zm-102.622 0h20.88v10.285h-20.88zm87.015-25.394l14.764-14.764 7.273 7.272-14.765 14.765zm-30.406-8.334V.474h10.285v20.88zM59.464 36.96L44.699 22.197l7.273-7.272 14.764 14.764z" fill="#FFA353"/>
</svg>
