<svg xmlns="http://www.w3.org/2000/svg" width="500" height="500" viewBox="0 0 375 375"><defs><clipPath id="a"><path d="M121.234 223H179v18h-57.766Zm0 0"/></clipPath><clipPath id="b"><path d="M121.234 222H180v19.46h-58.766Zm0 0"/></clipPath><clipPath id="c"><path d="M121.234 224H135v17h-13.766Zm0 0"/></clipPath><clipPath id="d"><path d="M121.234 223H136v18.46h-14.766Zm0 0"/></clipPath><clipPath id="e"><path d="M121.234 213H179v27h-57.766Zm0 0"/></clipPath><clipPath id="f"><path d="M121.234 213H180v27h-58.766Zm0 0"/></clipPath><clipPath id="g"><path d="M121.234 233H135v7h-13.766Zm0 0"/></clipPath><clipPath id="h"><path d="M121.234 232H136v8h-14.766Zm0 0"/></clipPath><clipPath id="i"><path d="M178 213h11v28.46h-11Zm0 0"/></clipPath><clipPath id="j"><path d="M196 225h57.984v16H196Zm0 0"/></clipPath><clipPath id="k"><path d="M195 224h58.984v17H195Zm0 0"/></clipPath><clipPath id="l"><path d="M240 224h13.984v17H240Zm0 0"/></clipPath><clipPath id="m"><path d="M240 223h13.984v18H240Zm0 0"/></clipPath><clipPath id="n"><path d="M196 225h57.984v14H196Zm0 0"/></clipPath><clipPath id="o"><path d="M195 224h58.984v16H195Zm0 0"/></clipPath><clipPath id="p"><path d="M240 232h13.984v7H240Zm0 0"/></clipPath><clipPath id="q"><path d="M240 232h13.984v8H240Zm0 0"/></clipPath><clipPath id="r"><path d="M187 224h10v17.46h-10Zm0 0"/></clipPath><clipPath id="s"><path d="M187 204h66.984v25H187Zm0 0"/></clipPath></defs><path fill="#263439" d="M294.453 200.223c4.637-31.07 3.246-57.274 1.16-74.895L187.5 89.676 79.387 125.328c-2.086 17.621-3.477 43.883 1.16 74.895 3.246 21.855 9.043 58.261 33.332 95.824 24.52 37.914 55.594 57.973 73.621 67.535a198.8 198.8 0 0 0 73.621-67.535c24.23-37.563 30.086-73.969 33.332-95.824M187.5 356.57c-19.941-11.074-47.07-30.84-68.46-63.882-24.06-37.16-29.509-73.739-32.407-93.391-3.422-22.899-3.942-46.262-1.567-69.45L187.5 96.11l102.434 33.739c2.375 23.187 1.855 46.492-1.567 69.449-2.957 19.652-8.347 56.172-32.406 93.39-21.39 33.043-48.52 52.81-68.461 63.883m85.043-212.98a257.5 257.5 0 0 1-2.379 53.039c-2.723 18.262-7.766 52.23-29.68 86.086-16.406 25.39-36.578 42.027-52.984 52.46-16.406-10.433-36.578-27.128-52.984-52.46-21.914-33.856-26.957-67.824-29.68-86.086a257.5 257.5 0 0 1-2.379-53.04l85.043-28.058ZM110.691 90.953l10.493 13.738-16.813 5.563-9.738-13.215c5.332-2.957 10.722-4.984 16.058-6.086m17.274 11.535-11.883-15.535c2.55-5.277 6.203-10.32 10.898-15.074l19.36 24.578Zm204.46 272.457L285.294 355.7l-29.91-40.578a199 199 0 0 0 11.129-15.594c.582-.87 1.101-1.738 1.625-2.609l30.55 40c1.157 1.45 3.247 1.738 4.696.578.754-.578 1.156-1.39 1.273-2.262.117-.867-.117-1.738-.695-2.492l-32.059-41.969a202 202 0 0 0 10.727-21.218l43.187 54.84ZM77.243 25.273l26.434 31.536c1.625 1.968 4.578 2.257 6.55.695l17.915-13.914c1.449-1.102 3.359-1.45 5.101-.813l8.403 2.957a4.696 4.696 0 0 1 3.074 5.043l-3.246 21.16-3.075-10.722c-.52-1.856-2.722-2.61-4.289-1.45-10.375 7.594-18.144 16.344-22.722 26.493-10.957 1.851-21.39 7.187-31.364 15.3-1.507 1.22-1.332 3.54.29 4.524l9.566 5.68-21.16-2.203c-2.258-.23-4.055-2.086-4.114-4.407L64.2 96.11a5.52 5.52 0 0 1 2.086-4.52l17.567-13.566c2.027-1.562 2.433-4.46.925-6.55l-23.941-33.45c3.535-.402 6.957-1.796 9.973-4.113a19.9 19.9 0 0 0 6.433-8.637M45.88 27.59c-5.332-6.899-4.113-16.809 2.785-22.145C55.562.113 65.473 1.332 70.81 8.23c5.332 6.899 4.113 16.81-2.786 22.145-6.84 5.332-16.808 4.055-22.144-2.785m201.156 74.898-18.32-6.031 19.363-24.578c4.695 4.754 8.348 9.797 10.899 15.074Zm6.781 2.203 10.493-13.738c5.336 1.102 10.726 3.07 16.058 6.027l-9.738 13.22ZM108.43 299.527c3.476 5.391 7.187 10.551 11.129 15.594L89.649 355.7l-47.075 19.246 6.668-50.55 43.188-54.84c3.015 6.898 6.55 14.03 10.722 21.218L70.98 332.801c-.578.754-.812 1.625-.695 2.492.117.871.524 1.684 1.278 2.262 1.449 1.16 3.593.87 4.695-.578l30.547-39.942c.523.809 1.101 1.68 1.625 2.492M230.28 50.777c-.347-2.203.93-4.347 3.074-5.043l8.403-2.957c1.742-.578 3.652-.289 5.101.813l17.914 13.914c2.028 1.562 4.926 1.273 6.551-.695l26.434-31.536c1.277 3.301 3.48 6.317 6.433 8.637 2.957 2.317 6.438 3.653 9.973 4.113l-23.941 33.45c-1.508 2.09-1.043 4.988.925 6.55l17.508 13.625c1.39 1.043 2.145 2.723 2.086 4.52l-.406 9.043c-.113 2.262-1.852 4.176-4.113 4.406l-21.16 2.203 9.566-5.68c1.621-.988 1.797-3.304.289-4.523-9.973-8.113-20.406-13.449-31.363-15.305-4.578-10.144-12.348-18.84-22.723-26.492-1.566-1.156-3.77-.406-4.289 1.45l-3.074 10.726ZM304.137 8.23c5.332-6.898 15.246-8.175 22.144-2.785 6.899 5.336 8.172 15.246 2.781 22.145-5.332 6.898-15.246 8.176-22.144 2.785-6.84-5.336-8.117-15.305-2.781-22.145m0 0"/><g clip-path="url(#a)"><path fill="#fff" d="m135.34 223.238-12.11 14.063h-1.378v1.601c0 .965.78 1.746 1.742 1.746 0 0 15.996-1.394 31.976-1.394s23.414 1.394 23.414 1.394v-17.41z"/></g><g clip-path="url(#b)"><path fill="#231f20" d="m135.34 223.238-.43-.37-11.937 13.866h-1.121a.56.56 0 0 0-.399.164.57.57 0 0 0-.164.403v1.601a2.31 2.31 0 0 0 2.305 2.313h.047c.004 0 .25-.024.718-.063 3.27-.265 17.258-1.332 31.211-1.332 7.973 0 13.809.348 17.649.696 1.918.175 3.34.347 4.277.476q.702.099 1.047.156.17.031.258.043l.062.012.016.004a.568.568 0 0 0 .668-.559v-17.41a.57.57 0 0 0-.164-.402.56.56 0 0 0-.399-.164H135.34a.56.56 0 0 0-.43.195zv.567h43.078v16.843h.566l.102-.558c-.035-.004-7.504-1.403-23.516-1.403-16.007 0-32.015 1.395-32.027 1.395l.05.566v-.566a1.18 1.18 0 0 1-1.175-1.18v-1.035h.812c.165 0 .32-.07.426-.195l12.11-14.063zv.566z"/></g><g clip-path="url(#c)"><path fill="#fff" d="M134.457 224.262 123.23 237.3h-1.378v1.601c0 .965.78 1.746 1.742 1.746 0 0 4.386-.382 10.863-.746l.063-1.543z"/></g><g clip-path="url(#d)"><path fill="#231f20" d="m134.457 224.262-.426-.371-11.058 12.843h-1.121a.56.56 0 0 0-.399.164.57.57 0 0 0-.164.403v1.601a2.31 2.31 0 0 0 2.305 2.313h.047l.785-.067c1.535-.125 5.215-.406 10.062-.68a.567.567 0 0 0 .535-.542l.063-1.543v-.028l-.063-14.097a.58.58 0 0 0-.37-.531.57.57 0 0 0-.622.164zh-.562l.062 14.09-.062 1.528.562.023-.031-.566c-6.485.363-10.875.746-10.883.746l.05.566v-.566a1.18 1.18 0 0 1-1.175-1.18v-1.035h.812c.165 0 .32-.07.426-.195l11.23-13.04zh-.562z"/></g><g clip-path="url(#e)"><path fill="#fff" d="m142.223 213.64-20.371 23.66c0 .966.78 1.747 1.742 1.747 0 0 18.847-1.395 31.976-1.395 13.133 0 23.414 1.395 23.414 1.395V213.64z"/></g><g clip-path="url(#f)"><path fill="#231f20" d="m142.223 213.64-.43-.37-20.367 23.66a.56.56 0 0 0-.137.37 2.314 2.314 0 0 0 2.305 2.317l.039-.004c.004 0 .293-.023.836-.058 3.781-.266 19.644-1.336 31.101-1.336a204 204 0 0 1 16.582.695c2.102.176 3.793.352 4.957.48.582.063 1.032.118 1.336.157q.23.03.348.043l.117.015c.16.024.32-.027.445-.132a.58.58 0 0 0 .192-.43V213.64a.56.56 0 0 0-.164-.399.55.55 0 0 0-.399-.168h-36.761a.57.57 0 0 0-.43.196zv.567h36.195v24.84h.566l.075-.563c-.016 0-10.317-1.398-23.489-1.398-13.164 0-32.011 1.398-32.02 1.398l.044.563v-.567a1.171 1.171 0 0 1-1.176-1.18h-.566l.425.372 20.371-23.66zv.566z"/></g><g clip-path="url(#g)"><path fill="#fff" d="m125.516 233.043-3.664 4.258c0 .965.78 1.746 1.742 1.746 0 0 4.644-.344 10.926-.688l-.973-1.996.973-3.32z"/></g><g clip-path="url(#h)"><path fill="#231f20" d="m125.516 233.043-.426-.371-3.664 4.258a.56.56 0 0 0-.137.37 2.314 2.314 0 0 0 2.305 2.317l.039-.004c.004 0 .293-.023.824-.058a657 657 0 0 1 10.094-.63.56.56 0 0 0 .457-.28.56.56 0 0 0 .02-.536l-.876-1.797.91-3.109a.568.568 0 0 0-.543-.727h-9.003a.57.57 0 0 0-.426.196zv.566h8.25l-.758 2.594a.55.55 0 0 0 .031.41l.977 1.996.504-.25-.032-.566c-6.285.344-10.933.691-10.937.691l.043.563v-.567a1.171 1.171 0 0 1-1.176-1.18h-.566l.425.372 3.668-4.258zv.566z"/></g><path fill="#fff" d="M143.488 213.559c-7.117 7.953-12 17.097-14.847 22.28-1.043 1.907-.703 1.684.191 1.684 0 0 17.164-2.199 29.363-2.199 12.203 0 22.04 1.996 22.04 1.996l-.286-23.761z"/><path fill="#231f20" d="m143.488 213.559-.418-.38c-7.172 8.016-12.078 17.204-14.922 22.387-.23.418-.398.743-.515 1.004a4 4 0 0 0-.14.368c-.036.117-.06.23-.06.37 0 .118.024.266.106.407a.74.74 0 0 0 .238.242c.133.086.25.11.348.125.098.016.184.016.266.016.148 0 .289-.008.441-.008l.07-.004c.004 0 .27-.035.758-.094 3.442-.422 17.906-2.101 28.528-2.101h.007l-.004-.465-.02.465h.024l-.004-.465-.02.465h.024c6.07 0 11.559.496 15.524.996 1.984.246 3.59.496 4.695.68.55.093.98.171 1.27.222q.217.041.328.066.11.019.11.02a.57.57 0 0 0 .472-.117.56.56 0 0 0 .203-.446l-.281-23.761a.57.57 0 0 0-.567-.559h-36.46a.56.56 0 0 0-.419.188zv.566h35.903l.277 23.2.566-.005.11-.558c-.02-.004-9.887-2.004-22.149-2.004v.566l.024-.566h-.031v.312-.312.312-.312c-12.258 0-29.415 2.203-29.426 2.203l.07.562v-.566c-.184 0-.34.008-.441.008-.047 0-.086-.004-.098-.004h-.004l-.012.074.02-.074h-.008l-.012.074.02-.074-.07.273.136-.246-.066-.027-.07.273.136-.246-.195.352.352-.188a.45.45 0 0 0-.157-.164l-.195.352.352-.188-.297.157h.34a.33.33 0 0 0-.043-.157l-.297.157h.34-.13l.13.011v-.011h-.13l.13.011c0-.03.042-.164.14-.367.094-.207.238-.484.434-.84 2.843-5.187 7.71-14.285 14.773-22.175zv.567z"/><path fill="#fff" d="M178.984 213.64v27.008s.024.282.813.282h7.812v-27.29z"/><g clip-path="url(#i)"><path fill="#231f20" d="M178.984 213.64h-.566v27.008l.004.051a.7.7 0 0 0 .082.27c.09.16.262.312.473.398.214.086.472.13.82.13h7.812a.56.56 0 0 0 .403-.169.56.56 0 0 0 .164-.398v-27.29a.56.56 0 0 0-.164-.398.56.56 0 0 0-.403-.168h-8.625a.56.56 0 0 0-.402.168.57.57 0 0 0-.164.399zv.566h8.063v26.156h-7.25c-.168 0-.274-.015-.336-.031a.2.2 0 0 1-.059-.02l-.109.208.187-.122c-.035-.054-.078-.085-.078-.085l-.109.207.187-.122-.375.243.442-.04a.5.5 0 0 0-.067-.203l-.375.243.442-.04-.563.047h.563v-27.007zv.566z"/></g><path fill="#fff" d="M178.984 213.64v25.407s.067.348.88.348h7.745V213.64z"/><path fill="#231f20" d="M178.984 213.64h-.566v25.407l.012.113a.7.7 0 0 0 .093.23c.082.145.243.305.47.407.226.105.507.164.87.164h7.746a.565.565 0 0 0 .566-.566V213.64a.56.56 0 0 0-.163-.399.56.56 0 0 0-.403-.168h-8.625a.56.56 0 0 0-.402.168.57.57 0 0 0-.164.399zv.566h8.063v24.621h-7.184c-.164 0-.27-.02-.332-.035-.05-.012-.07-.023-.078-.031h-.004l-.101.136.144-.085-.043-.051-.101.136.144-.085-.34.203.383-.078a.3.3 0 0 0-.043-.125l-.34.203.383-.078-.55.109h.562V213.64zv.566z"/><path fill="#fff" d="M187.61 208.313c-1.137-.715-4.587-4.485-13.813-4.84-12.227-.473-21.77 3.957-21.77 3.957l-28.351 22.402 63.933.574z"/><path fill="#231f20" d="m187.61 208.313.3-.485c-.105-.062-.277-.195-.496-.363-.383-.3-.922-.723-1.629-1.184-2.125-1.394-5.816-3.14-11.969-3.375a50 50 0 0 0-1.859-.035c-11.46 0-20.121 4.027-20.168 4.043-.035.02-.078.047-.11.07l-28.355 22.403a.56.56 0 0 0-.183.625c.078.23.289.383.527.386l63.937.575a.567.567 0 0 0 .57-.567v-22.094a.58.58 0 0 0-.265-.484zh-.563v21.52l-61.762-.555 27.094-21.402-.352-.445.239.515.02-.007c.472-.22 8.823-3.938 19.671-3.934q.903 0 1.816.035c4.543.176 7.625 1.188 9.715 2.227 1.043.52 1.84 1.05 2.45 1.496.304.222.562.425.785.597.226.176.41.317.59.434zh-.562z"/><path fill="#fff" d="M187.61 228.16c-1.255-1.77-5.876-6.066-21.364-6.484-22.129-.602-42.57 8.156-42.57 8.156l1.422 2.05 1.078-.163-.985.293.305.441.363.781.621-.054-.507.21.101.153.305.437 1.32 1.903 2.867-.883-2.714 1.055.867 1.297s1.601-1.051 17.195-4.864c22.582-5.52 34.32 4.832 34.32 4.832s3.375-2.375 7.375-2.492z"/><path fill="#231f20" d="m187.61 228.16.46-.328c-.691-.977-2.257-2.562-5.586-3.945-3.332-1.383-8.43-2.567-16.222-2.782a84 84 0 0 0-2.211-.027c-21.41.004-40.559 8.219-40.598 8.23a.56.56 0 0 0-.32.364.57.57 0 0 0 .078.484l1.422 2.051c.125.176.34.27.55.234l1.079-.164-.086-.558-.164-.543-.985.293a.568.568 0 0 0-.3.867l.277.402.344.739a.57.57 0 0 0 .558.32l.621-.05-.047-.567-.218-.524-.508.215a.567.567 0 0 0-.246.844l.105.152.301.438 1.324 1.902c.137.203.39.29.625.219l2.867-.883-.164-.543-.203-.531-2.715 1.058a.568.568 0 0 0-.265.844l.867 1.297a.566.566 0 0 0 .777.16l-.226-.351.215.359.011-.008-.226-.351.215.359-.004-.004.004.004-.004-.004.004.004c.039-.024.66-.344 3.074-1.086 2.418-.746 6.644-1.922 13.957-3.71 4.71-1.153 8.941-1.602 12.676-1.602 7.011 0 12.308 1.59 15.847 3.175 1.77.79 3.102 1.582 3.989 2.168.441.297.77.54.988.711.11.082.187.149.242.192l.059.05.011.008v.004c.2.172.485.188.7.035h.004c.082-.058.925-.633 2.214-1.203 1.29-.57 3.016-1.129 4.852-1.183a.566.566 0 0 0 .547-.567v-6.668a.56.56 0 0 0-.106-.328zh-.563v6.668h.562l-.015-.566c-2.106.062-4.016.71-5.403 1.34-1.39.628-2.261 1.238-2.28 1.253l.323.465.371-.43c-.03-.027-1.906-1.675-5.574-3.316-3.664-1.64-9.125-3.273-16.308-3.273-3.828 0-8.145.465-12.942 1.637-7.804 1.906-12.113 3.125-14.48 3.87-1.184.376-1.887.63-2.297.794-.414.168-.54.242-.594.277l.309.473.469-.317-.473-.707 2.055-.8a.57.57 0 0 0 .332-.715.57.57 0 0 0-.7-.356l-2.476.762-1.086-1.563-.3-.437v.004l-.106-.153-.461.32.215.528.507-.215a.56.56 0 0 0 .332-.656.56.56 0 0 0-.593-.43l-.23.016-.196-.418-.051-.082-.305-.442-.46.32.16.544.984-.293a.568.568 0 0 0-.246-1.106l-.73.114-1.223-1.762-.461.324.219.52s.02-.004.054-.02c1.102-.469 19.633-8.125 40.102-8.121.722 0 1.453.008 2.18.031 7.695.207 12.656 1.38 15.82 2.696s4.535 2.761 5.101 3.554zh-.562z"/><path fill="#fff" d="M187.61 209.105c-.973-.675-3.676-5.187-10.989-6.046-12.781-1.508-26.203 4.37-26.203 4.37l-25.492 15.575s8.761-4.168 35.16-4.078c20.941.07 26.23 6.105 27.523 8.601z"/><path fill="#231f20" d="m187.61 209.105.32-.468a3.5 3.5 0 0 1-.364-.344c-.308-.32-.734-.805-1.3-1.348a15.6 15.6 0 0 0-3.57-2.625c-1.567-.836-3.54-1.535-6.008-1.824a38 38 0 0 0-4.426-.25c-5.727 0-11.23 1.164-15.313 2.328-4.082 1.164-6.738 2.328-6.758 2.336l-.066.035-25.492 15.575a.57.57 0 0 0-.207.753.567.567 0 0 0 .742.243l-.078-.164.074.164h.004l-.078-.164.074.164c.035-.016 8.598-4.024 34.094-4.024h.828c10.414.035 16.898 1.559 20.902 3.344 4.004 1.789 5.535 3.824 6.121 4.953a.565.565 0 0 0 1.066-.262v-18.422a.56.56 0 0 0-.245-.468zh-.563v18.422h.562l.504-.261c-.707-1.364-2.468-3.598-6.668-5.465-4.203-1.875-10.832-3.406-21.355-3.442h-.832c-25.813 0-34.477 4.086-34.574 4.133l.242.512.293.484 25.492-15.574-.293-.484.227.52.027-.012c.297-.13 2.992-1.27 6.965-2.38s9.226-2.18 14.625-2.18c1.425 0 2.863.075 4.293.243 3.55.422 5.945 1.711 7.593 2.98a17 17 0 0 1 1.954 1.786c.246.261.46.496.652.691.191.2.348.36.535.492zh-.562z"/><path fill="#fff" d="M124.926 223.004s8.761-4.168 35.16-4.078c20.941.07 26.23 6.105 27.523 8.601"/><path fill="#231f20" d="m125.168 223.516-.078-.164.074.164zl-.078-.164.074.164c.035-.016 8.598-4.024 34.094-4.024h.828c10.414.035 16.898 1.559 20.902 3.344 4.004 1.789 5.535 3.824 6.121 4.953l1.004-.523c-.707-1.364-2.468-3.598-6.668-5.465-4.203-1.875-10.832-3.406-21.355-3.442h-.832c-25.813 0-34.477 4.086-34.574 4.133z"/><path fill="#fff" d="M187.61 208.434c-.606-1.41-7.993-8.832-18.7-6.325-14.14 3.317-18.492 1.657-18.492 1.657l-21.586 12.718s2.965 2.473 14.629 1.848c8.512-.457 22.176-2.867 29.172-1.09 10.738 2.73 14 6.582 14.976 8.88z"/><path fill="#231f20" d="m187.61 208.434.519-.223c-.106-.238-.266-.477-.5-.774-.41-.507-1.04-1.152-1.871-1.843a20.2 20.2 0 0 0-5.067-3.059 19.2 19.2 0 0 0-7.41-1.508c-1.426 0-2.93.164-4.5.532-7.035 1.648-11.617 2.054-14.418 2.054-1.402 0-2.36-.101-2.953-.199-.297-.047-.504-.098-.633-.129q-.097-.029-.136-.039l-.024-.008-.004-.004-.11.305.114-.3-.004-.005-.11.305.114-.3a.56.56 0 0 0-.484.038l-21.586 12.72a.58.58 0 0 0-.277.44.57.57 0 0 0 .203.485c.066.055.722.574 2.457 1.082 1.73.504 4.539.996 8.922.996 1.109 0 2.32-.031 3.636-.105 3.164-.168 7.004-.602 10.946-.993 3.941-.39 7.976-.738 11.511-.738 2.52 0 4.782.176 6.547.629 5.324 1.352 8.762 2.977 10.969 4.52s3.187 2.988 3.633 4.03a.56.56 0 0 0 .629.333.57.57 0 0 0 .453-.555v-17.687a.6.6 0 0 0-.047-.223zh-.562v17.687h.562l.52-.226c-.531-1.25-1.672-2.875-4.024-4.516-2.355-1.64-5.917-3.309-11.335-4.688-1.915-.484-4.25-.66-6.825-.66-3.605 0-7.672.352-11.62.742-3.95.391-7.782.825-10.895.993-1.301.07-2.489.101-3.578.097-4.301.004-7.004-.48-8.61-.949-.8-.234-1.332-.465-1.652-.629a4 4 0 0 1-.332-.191l-.063-.043-.007-.008-.157.203.164-.195-.007-.008-.157.203.164-.195-.363.433.285.493 21.586-12.72-.285-.491-.2.53c.079.032 1.231.454 4.145.454 2.91 0 7.57-.422 14.676-2.086a18.4 18.4 0 0 1 4.242-.5c4.024 0 7.375 1.363 9.785 2.879a17.5 17.5 0 0 1 2.864 2.223c.343.332.62.636.816.882.2.247.324.45.348.512zh-.562z"/><path fill="#fff" d="M128.832 216.484s2.965 2.473 14.629 1.848c8.512-.457 22.176-2.867 29.172-1.09 10.738 2.73 14 6.582 14.976 8.88"/><path fill="#231f20" d="M128.473 216.922c.066.055.722.574 2.457 1.082 1.73.504 4.539.996 8.922.996 1.109 0 2.32-.031 3.636-.105 3.164-.168 7.004-.602 10.946-.993 3.941-.39 7.976-.738 11.511-.738 2.52 0 4.782.176 6.547.629 5.324 1.352 8.762 2.977 10.969 4.52s3.187 2.988 3.633 4.03l1.035-.448c-.531-1.25-1.672-2.875-4.024-4.516-2.355-1.64-5.917-3.309-11.335-4.688-1.915-.484-4.25-.66-6.825-.66-3.605 0-7.672.352-11.62.742-3.95.391-7.782.825-10.895.993-1.301.07-2.489.101-3.578.097-4.301.004-7.004-.48-8.61-.949-.8-.234-1.332-.465-1.652-.629a4 4 0 0 1-.332-.191l-.063-.043-.007-.008-.157.203.164-.195-.007-.008-.157.203.164-.195z"/><g clip-path="url(#j)"><path fill="#fff" d="M241.703 225.098h-45.465v15.297S203.672 239 219.652 239c12.211 0 12.125-.336 31.977 1.395.96 0 1.742-.786 1.742-1.747v-1.605h-1.379z"/></g><g clip-path="url(#k)"><path fill="#231f20" d="M241.703 225.098v-.57h-45.465a.57.57 0 0 0-.562.57v15.297a.56.56 0 0 0 .203.433c.129.11.3.152.465.121h.015c.418-.078 7.844-1.383 23.293-1.383 3.422 0 5.88-.027 8.075-.027 2.82 0 5.207.043 8.68.242 3.472.2 8.03.555 15.175 1.18h.047a2.31 2.31 0 0 0 2.305-2.313v-1.605a.565.565 0 0 0-.563-.566h-1.125l-10.117-11.75a.56.56 0 0 0-.426-.2zl-.426.368 10.286 11.953c.109.121.265.195.43.195h.812v1.035c0 .649-.528 1.176-1.176 1.18v.567l.047-.567c-7.149-.625-11.715-.976-15.207-1.18-3.492-.199-5.91-.242-8.742-.242-2.204 0-4.657.028-8.075.028-16.011 0-23.48 1.394-23.515 1.402l.101.559h.567v-14.73h44.898zl-.426.367z"/></g><g clip-path="url(#l)"><path fill="#fff" d="m240.762 224.004 11.23 13.039h1.38v1.605c0 .961-.782 1.747-1.743 1.747 0 0-4.39-.383-10.867-.75l-.063-1.543z"/></g><g clip-path="url(#m)"><path fill="#231f20" d="m240.762 224.004-.426.371 11.226 13.043c.11.121.266.195.43.195h.813v1.035c0 .649-.528 1.176-1.176 1.18v.567l.047-.567c-.004 0-4.399-.383-10.88-.746l-.034.563.566-.02-.062-1.535.062-14.082zl-.426.371zh-.563l-.062 14.098v.023l.062 1.547a.57.57 0 0 0 .535.543c3.23.18 5.946.367 7.848.508a234 234 0 0 1 3 .238h.047a2.31 2.31 0 0 0 2.305-2.313v-1.605a.565.565 0 0 0-.563-.566h-1.125l-11.055-12.844a.57.57 0 0 0-.625-.16.57.57 0 0 0-.367.53z"/></g><g clip-path="url(#n)"><path fill="#fff" d="M196.238 225.098v13.695s10.282-1.395 23.414-1.395c13.13 0 31.977 1.395 31.977 1.395.96 0 1.742-.781 1.742-1.75l-10.289-11.945z"/></g><g clip-path="url(#o)"><path fill="#231f20" d="M196.238 225.098h-.562v13.695a.565.565 0 0 0 .64.562q-.001-.001.114-.015c1.16-.153 10.949-1.375 23.222-1.375 6.543 0 14.536.347 20.883.695 3.172.176 5.938.352 7.906.48.989.067 1.774.122 2.313.157.543.039.832.062.832.062h.043a2.31 2.31 0 0 0 2.305-2.316.6.6 0 0 0-.137-.371l-10.29-11.945a.56.56 0 0 0-.425-.2h-46.844a.57.57 0 0 0-.562.57zv.567h46.586l10.117 11.754.43-.375h-.566c0 .652-.528 1.18-1.176 1.184v.566l.043-.566c-.008 0-18.856-1.395-32.02-1.395-13.172 0-23.472 1.398-23.488 1.398l.074.563h.567v-13.695zv.566z"/></g><g clip-path="url(#p)"><path fill="#fff" d="m249.707 232.79 3.664 4.253c0 .969-.781 1.75-1.742 1.75 0 0-4.645-.344-10.93-.691l.973-1.993-.973-3.32z"/></g><g clip-path="url(#q)"><path fill="#231f20" d="m249.707 232.79-.43.37 3.664 4.258.43-.375h-.566c0 .328-.13.621-.344.836a1.17 1.17 0 0 1-.832.348v.566l.043-.566c-.004 0-4.652-.344-10.942-.692l-.03.567.507.25.973-1.993a.57.57 0 0 0 .035-.41l-.758-2.594h8.25zl-.43.371zv-.567h-9.008a.566.566 0 0 0-.539.726l.91 3.11-.875 1.796a.56.56 0 0 0 .02.536.55.55 0 0 0 .453.277 676 676 0 0 1 10.098.633c.53.035.82.058.82.058h.043a2.31 2.31 0 0 0 2.305-2.316.6.6 0 0 0-.137-.371l-3.664-4.254a.56.56 0 0 0-.426-.195z"/></g><path fill="#fff" d="M195.27 225.098v11.351s9.554-1.297 21.757-1.297c12.2 0 32.02 1.746 32.02 1.746.195-.449-.692-1.175-.692-2.07l-8.375-9.73z"/><path fill="#231f20" d="M195.27 225.098h-.563v11.351c0 .164.07.32.195.426.121.11.286.16.446.137q0 .001.105-.016c1.078-.14 10.172-1.273 21.574-1.273 6.075 0 14.075.433 20.547.87 3.238.22 6.094.434 8.14.598 1.024.082 1.845.149 2.411.2l.875.074a.57.57 0 0 0 .566-.344 1 1 0 0 0 .075-.363c-.004-.266-.09-.453-.172-.625-.125-.258-.27-.485-.38-.707-.109-.223-.171-.426-.167-.598a.58.58 0 0 0-.137-.371l-8.379-9.73a.57.57 0 0 0-.426-.2h-44.71a.567.567 0 0 0-.562.57zv.567h44.453l8.207 9.531.425-.367h-.562c0 .285.062.547.144.774.13.34.297.62.418.835q.091.167.133.262l.024.063v.008l.082-.012h-.082v.012l.082-.012h-.082.21l-.19-.082-.02.082h.21l-.19-.082.515.222.05-.566c-.007 0-19.824-1.746-32.07-1.746-12.242 0-21.816 1.3-21.832 1.3l.075.563h.566v-11.351zv.566z"/><path fill="#fff" d="M187.61 225.352v15.578h7.816c.789 0 .812-.282.812-.282v-15.296z"/><g clip-path="url(#r)"><path fill="#231f20" d="M187.61 225.352h-.563v15.578c0 .148.058.297.164.398.105.11.25.168.398.168h7.817c.46 0 .773-.074 1.015-.234a.84.84 0 0 0 .274-.293.7.7 0 0 0 .086-.27l.004-.05v-15.297a.565.565 0 0 0-.566-.566h-8.63a.56.56 0 0 0-.398.163.57.57 0 0 0-.164.403zv.566h8.067v14.73h.562l-.562-.046.449.039-.395-.223a.4.4 0 0 0-.054.184l.449.039-.395-.223.27.148-.2-.238a.3.3 0 0 0-.07.09l.27.148-.2-.238.11.137-.094-.149-.015.012.11.137-.095-.149.032.051-.028-.054-.004.003.032.051-.028-.054c0 .003-.11.05-.394.05h-7.25v-15.011zv.566z"/></g><path fill="#fff" d="M187.61 225.352v14.043h7.75c.808 0 .878-.348.878-.348v-13.695z"/><path fill="#231f20" d="M187.61 225.352h-.563v14.043a.565.565 0 0 0 .562.566h7.75c.48 0 .828-.102 1.075-.281a1 1 0 0 0 .265-.29.7.7 0 0 0 .094-.23.5.5 0 0 0 .012-.113v-13.695a.565.565 0 0 0-.566-.566h-8.63a.56.56 0 0 0-.398.163.57.57 0 0 0-.164.403zv.566h8.067v13.129h.562l-.55-.11.378.075-.336-.2a.3.3 0 0 0-.042.125l.378.075-.336-.2.165.098-.13-.144-.035.047.165.097-.13-.144.04.043-.035-.047-.004.004.039.043-.035-.047-.016.008c-.035.02-.156.058-.395.058h-7.183v-13.476zv.566z"/><path fill="#fff" d="M187.61 209.547c1.136-.598 4.585-3.774 13.816-4.074 12.226-.399 21.77 3.336 21.77 3.336l28.077 22.218-63.664-2.867z"/><path fill="#231f20" d="m187.61 209.547.265.504c.18-.094.363-.215.586-.363.39-.254.89-.586 1.555-.95 1.988-1.097 5.449-2.504 11.43-2.699q.918-.029 1.82-.027c5.609 0 10.55.832 14.082 1.664 1.77.418 3.183.836 4.156 1.144.484.157.855.285 1.11.375l.284.106.07.027.02.008.207-.527-.351.445 26.699 21.129-61.367-2.762v-18.074zl.266.504zh-.562v18.613c0 .305.238.555.539.567l63.66 2.867a.56.56 0 0 0 .555-.367.57.57 0 0 0-.18-.645l-28.078-22.219a.5.5 0 0 0-.145-.082c-.039-.015-8.691-3.402-20.132-3.406q-.923.001-1.856.031c-4.68.153-7.922 1.035-10.144 1.969-1.11.469-1.965.945-2.61 1.344-.32.199-.594.375-.812.52-.219.144-.39.253-.496.308a.57.57 0 0 0-.301.5z"/><path fill="#fff" d="M187.61 228.16c1.257-2.785 6.398-6.46 22.144-8.187 23.355-2.559 41.52 11.054 41.52 11.054l-.544 1.266-.558-.234.52.296-.915 2.133-.246-.129.235.18-.477 1.117-.094.047.032.106-.387.906s-3.992-2.324-19.817-3.715c-24.09-2.117-34.035 4.3-34.035 4.3s-3.375-2.288-7.379-2.472z"/><path fill="#231f20" d="m187.61 228.16.515.235c.273-.606.773-1.293 1.625-2.012 1.277-1.078 3.352-2.227 6.578-3.254 3.23-1.031 7.61-1.95 13.484-2.59a53 53 0 0 1 5.836-.316c10.118-.004 18.95 2.816 25.25 5.636a66 66 0 0 1 7.387 3.875c.863.528 1.528.97 1.977 1.274.222.156.394.273.504.355l.129.09.03.024.009.007.34-.457-.52-.222-.32.75-.047-.02a.567.567 0 0 0-.496 1.016l.082.047-.715 1.664.52.226.257-.504-.246-.129a.566.566 0 0 0-.734.2.57.57 0 0 0 .129.754l.234.18.348-.45-.524-.223-.472 1.118.52.222-.255-.508-.094.047a.57.57 0 0 0-.293.653l.032.105.547-.144-.524-.223-.383.91.52.219.281-.488c-.121-.067-4.18-2.395-20.047-3.793-3.43-.301-6.57-.43-9.445-.43-17.414 0-24.863 4.762-24.945 4.82l.304.477.317-.469c-.024-.016-.89-.605-2.278-1.219-1.386-.613-3.289-1.254-5.39-1.351l-.028.566h.567v-6.668zl.516.235zh-.562v6.668c0 .305.238.555.539.567 1.898.085 3.684.68 4.984 1.257a16 16 0 0 1 2.07 1.098l.028.016.004.004a.57.57 0 0 0 .621.007l-.098-.152.098.152-.098-.152.098.152c.031-.015 7.262-4.636 24.336-4.64 2.84 0 5.95.129 9.348.43 7.886.69 12.812 1.617 15.75 2.363 1.468.375 2.441.699 3.039.93a8 8 0 0 1 .761.335l.028.012.004.004.129-.23-.133.226.004.004.129-.23-.133.226c.14.082.308.098.46.047a.55.55 0 0 0 .344-.316l.383-.907a.55.55 0 0 0 .028-.363l-.028-.11-.547.145.258.504.094-.047a.56.56 0 0 0 .262-.281l.476-1.117a.57.57 0 0 0-.176-.668l-.234-.184-.344.45-.258.503.243.125c.14.075.304.086.453.032a.6.6 0 0 0 .328-.31l.914-2.128a.565.565 0 0 0-.238-.715l-.524-.3-.277.492-.219.523.559.234a.565.565 0 0 0 .738-.296l.54-1.266a.564.564 0 0 0-.18-.68c-.024-.02-3.852-2.883-10.255-5.75-6.398-2.867-15.378-5.738-25.707-5.738-1.941 0-3.93.101-5.957.324-7.91.867-13.18 2.223-16.668 3.738-1.742.762-3.043 1.559-4 2.368s-1.574 1.625-1.925 2.41a.55.55 0 0 0-.051.234z"/><path fill="#fff" d="M193.879 236.484c-.371-.683-1.149-1.16-2.121-1.23-.453-.617-1.461-.977-2.27-.746-.511-.344-1.203-.606-1.879-.473-.672-.133-1.367.13-1.875.473-.812-.23-1.816.129-2.27.746-.972.07-1.75.547-2.12 1.23-.578-.16-1.735.7-1.387 1.098 0 0 .438.465.719.555.277.093.32.047 2.152-1.117 1.406-.891 3.633-1.141 4.781-1.141 1.153 0 3.38.25 4.786 1.14 1.828 1.165 1.875 1.211 2.152 1.118.277-.09.719-.555.719-.555.347-.398-.809-1.258-1.387-1.098"/><path fill="#231f20" d="m193.879 236.484.492-.27c-.476-.882-1.441-1.444-2.574-1.526l-.04.566.458-.336c-.25-.34-.59-.594-.969-.77a2.94 2.94 0 0 0-1.234-.277c-.227 0-.453.027-.68.094l.156.543.317-.469c-.489-.328-1.118-.601-1.828-.605a2.2 2.2 0 0 0-.473.046l.105.555.11-.555a2.2 2.2 0 0 0-.473-.046c-.71.004-1.34.277-1.828.605l.316.469.153-.543a2.4 2.4 0 0 0-.68-.094c-.43 0-.852.102-1.23.277-.38.176-.72.43-.97.77l.458.336-.043-.566c-1.129.082-2.094.644-2.574 1.527l.496.27.152-.544a1 1 0 0 0-.309-.043c-.23 0-.437.059-.632.133a2.6 2.6 0 0 0-.778.496c-.113.11-.21.223-.293.36a1 1 0 0 0-.156.523.8.8 0 0 0 .207.547l.012.012c.008.008.125.136.289.281q.128.113.285.227c.106.074.215.144.375.199h-.004c.067.02.184.062.336.062s.29-.043.414-.093c.184-.079.367-.188.66-.368.29-.18.676-.425 1.227-.777.61-.39 1.46-.664 2.297-.828a12 12 0 0 1 2.183-.223c.54 0 1.356.059 2.188.223.836.164 1.687.437 2.297.828.734.469 1.18.754 1.488.934.152.093.277.16.398.21.125.051.262.094.415.094.148 0 .27-.043.332-.062.156-.055.27-.125.375-.2.156-.113.293-.234.398-.331.102-.098.168-.168.176-.176l.012-.012a.82.82 0 0 0 .207-.547 1 1 0 0 0-.079-.375 1.5 1.5 0 0 0-.316-.453 2.6 2.6 0 0 0-.656-.469 1.86 1.86 0 0 0-.809-.215q-.147-.002-.312.043zl.492-.27zl.152.547-.011-.043.003.047.008-.004-.011-.043.003.047.012-.004c.031 0 .117.016.211.055.149.059.32.168.422.27.055.05.09.097.102.117l.007.007.067-.03-.074.019.007.011.067-.03-.074.019.222-.059h-.226l.004.059.222-.059h-.226.308l-.23-.203a.3.3 0 0 0-.078.203h.308l-.23-.203.422.375-.41-.394v.003c-.02.02-.122.125-.239.227-.058.05-.125.102-.172.137l-.062.039-.016.008.031.082-.027-.086-.004.004.031.082-.027-.086-.023.007.047.204v-.207l-.047.003.047.204v-.207.191l.042-.188-.042-.003v.191l.042-.188a3 3 0 0 1-.453-.25c-.277-.167-.683-.43-1.289-.812-.797-.504-1.761-.8-2.68-.984-.917-.18-1.788-.246-2.406-.246-.613 0-1.484.066-2.402.246-.922.183-1.883.48-2.684.984-.73.465-1.183.754-1.453.91a2 2 0 0 1-.265.145l-.02.007h-.004l.047.176v-.18l-.047.004.047.176v-.18.22l.047-.216-.047-.003v.218l.047-.215-.02-.007h-.003l-.028.082.031-.078-.003-.004-.028.082.031-.078-.007-.004a2.2 2.2 0 0 1-.434-.36l-.047-.047v-.004l-.41.395.422-.379-.234.207h.312a.33.33 0 0 0-.078-.207l-.234.207h.312-.18l.168.07s.012-.023.012-.07h-.18l.168.07.02-.027a1.2 1.2 0 0 1 .347-.289c.157-.09.329-.133.375-.129h.012l.004-.035-.012.031.008.004.004-.035-.012.031a.56.56 0 0 0 .649-.273c.262-.488.851-.88 1.664-.938a.57.57 0 0 0 .414-.23c.11-.149.3-.305.535-.414a1.9 1.9 0 0 1 .754-.172c.133 0 .258.02.371.05.16.048.332.02.469-.074.348-.238.8-.417 1.2-.414q.128 0 .257.024.106.023.219 0 .124-.024.254-.024c.394-.004.847.176 1.199.414a.55.55 0 0 0 .469.075 1.4 1.4 0 0 1 .367-.051c.25 0 .523.066.758.172.234.11.425.265.535.414.097.133.25.219.414.23.812.059 1.398.45 1.66.938a.56.56 0 0 0 .652.273z"/><path fill="#fff" d="M187.61 209.156c.976-.566 3.68-3.308 10.992-4.031 12.78-1.27 14.359 2.953 25.605 2.898 5.18 2.536 20.762 11 28.418 12.122-11.422 1.812-11.09-1.727-37.488-1.653-20.942.059-26.235 6.934-27.528 9.035z"/><g clip-path="url(#s)"><path fill="#231f20" d="m187.61 209.156.285.492a8 8 0 0 0 .5-.335c.636-.461 1.617-1.196 3.242-1.91 1.62-.715 3.875-1.403 7.02-1.715a45 45 0 0 1 4.429-.235c4.34 0 7.082.766 10.012 1.55 2.93.786 6.035 1.59 10.894 1.59.07 0 .145 0 .215-.003v-.567l-.246.512c2.574 1.258 7.773 4.016 13.289 6.594 2.758 1.293 5.594 2.539 8.234 3.539 2.641.996 5.075 1.75 7.059 2.039l.082-.562-.09-.56c-2.308.368-4.117.509-5.762.509-1.585 0-3.02-.133-4.617-.332-2.39-.305-5.133-.766-9.18-1.149s-9.394-.691-17.023-.691h-.82c-10.531.031-17.172 1.773-21.371 3.808-4.2 2.036-5.946 4.38-6.633 5.5l.48.297h.567v-18.37zl.286.491zh-.562v18.371a.57.57 0 0 0 .41.547.57.57 0 0 0 .637-.25c.605-.98 2.152-3.125 6.156-5.07 4.008-1.941 10.477-3.668 20.887-3.695q.414-.002.816-.004c10.133.004 16.192.543 20.531 1.082 2.168.273 3.914.543 5.532.75 1.617.203 3.109.343 4.757.343 1.711 0 3.586-.148 5.938-.523a.564.564 0 0 0 .476-.562.56.56 0 0 0-.48-.56c-1.844-.269-4.227-.995-6.824-1.98-3.899-1.476-8.285-3.523-12.18-5.437s-7.293-3.695-9.25-4.652a.55.55 0 0 0-.25-.059q-.105.005-.21.004c-4.74-.004-7.68-.77-10.602-1.55-2.918-.786-5.832-1.595-10.305-1.59-1.356 0-2.852.07-4.54.238-3.718.37-6.296 1.254-8.066 2.132-.882.438-1.566.871-2.09 1.23-.257.18-.476.34-.656.47a7 7 0 0 1-.406.277.56.56 0 0 0-.281.488z"/></g><path fill="#fff" d="M187.61 208.344c.992-.57 3.335-3.11 8.628-3.426 11.395-.691 12.942-8.168 12.942-8.168l21.886 4.04s-11.902 12.73-28.476 16.284c-10.738 2.301-14 7.113-14.98 9.047z"/><path fill="#231f20" d="m187.61 208.344.28.492c.317-.184.641-.45 1.075-.766 1.297-.941 3.465-2.351 7.308-2.59 5.817-.343 9.22-2.457 11.122-4.52 1.906-2.062 2.324-4.03 2.34-4.097l-.555-.113-.102.555 21.887 4.043.101-.559-.414-.387-.03.036c-.337.355-3.411 3.53-8.38 7.039-4.972 3.507-11.847 7.343-19.77 9.039-5.437 1.168-9.019 2.976-11.374 4.765-2.352 1.79-3.473 3.555-3.989 4.582l.5.258h.567v-17.777zl.282.492zh-.562v17.777c0 .258.18.488.433.55a.564.564 0 0 0 .633-.296c.461-.906 1.461-2.512 3.668-4.187 2.203-1.676 5.625-3.426 10.93-4.563 8.39-1.797 15.574-5.91 20.66-9.562 5.09-3.66 8.09-6.864 8.106-6.883a.56.56 0 0 0 .125-.567.56.56 0 0 0-.434-.379l-21.887-4.043a.563.563 0 0 0-.652.442l.312.066-.312-.066.312.066-.312-.066q-.001-.001-.02.074c-.101.387-.64 2.145-2.418 3.871-1.78 1.723-4.796 3.453-9.988 3.774-2.73.164-4.726.906-6.16 1.683-.715.39-1.29.79-1.742 1.121-.45.328-.79.594-.969.696a.57.57 0 0 0-.285.492z"/><path fill="#fff" d="M187.61 226.121s.995-7.344 10.992-11.824c13.101-5.875 20.894-12.902 23.21-18.73 0 0-12.238 1.703-17.054.808 0 0-.18 5.344-4.016 6.438-3.836 1.09-10.199 1.015-13.133 5.53z"/><path fill="#231f20" d="m187.61 226.121.562.074-.031-.004.03.004-.03-.004.03.004c.009-.05.274-1.824 1.735-4.113 1.457-2.289 4.102-5.102 8.922-7.266 6.59-2.957 11.86-6.203 15.781-9.464 3.926-3.262 6.516-6.532 7.727-9.57a.56.56 0 0 0-.078-.563.55.55 0 0 0-.52-.211s-.12.015-.34.047c-1.53.199-8.011 1.015-12.84 1.015-1.453 0-2.753-.078-3.699-.254a.57.57 0 0 0-.668.54v.011a9.9 9.9 0 0 1-.582 2.754c-.254.672-.609 1.352-1.097 1.91-.492.559-1.11 1-1.926 1.235-.918.261-2.02.46-3.203.675-1.778.329-3.73.696-5.551 1.43-1.82.73-3.516 1.848-4.695 3.664a.6.6 0 0 0-.09.309v17.777a.564.564 0 0 0 1.125.074zh.567v-17.777h-.567l.477.312c.68-1.05 1.555-1.832 2.562-2.441 1.516-.918 3.332-1.43 5.141-1.809 1.813-.383 3.606-.625 5.106-1.05a5.1 5.1 0 0 0 2.523-1.641c.922-1.09 1.379-2.41 1.629-3.461.246-1.05.273-1.836.273-1.86l-.562-.019-.106.559c1.063.195 2.414.27 3.907.27 2.824 0 6.152-.27 8.777-.536 2.629-.27 4.55-.54 4.555-.54l-.078-.562-.524-.207c-1.105 2.782-3.57 5.942-7.398 9.118-3.828 3.18-9.008 6.382-15.524 9.304-5.094 2.281-7.937 5.324-9.488 7.805-1.55 2.484-1.82 4.398-1.828 4.457zh.567z"/><path fill="#fff" d="M187.61 227.527c1.292-2.101 6.585-8.976 27.527-9.035 26.398-.074 26.066 3.465 37.488 1.653"/><path fill="#231f20" d="M188.094 227.824c.605-.98 2.152-3.125 6.156-5.07 4.008-1.941 10.477-3.668 20.887-3.695q.414-.002.816-.004c10.133.004 16.192.543 20.531 1.082 2.168.273 3.914.543 5.532.75 1.617.203 3.109.343 4.757.343 1.711 0 3.586-.148 5.938-.523l-.172-1.121c-2.312.367-4.121.508-5.766.508-1.585 0-3.02-.133-4.617-.332-2.39-.305-5.133-.766-9.18-1.149s-9.394-.691-17.023-.691h-.82c-10.531.031-17.172 1.773-21.371 3.808-4.2 2.036-5.946 4.38-6.633 5.5z"/><path fill="#fff" d="M187.61 226.121c.98-1.934 4.242-6.746 14.98-9.047 16.574-3.554 28.476-16.285 28.476-16.285"/><path fill="#231f20" d="M188.113 226.375c.461-.906 1.461-2.512 3.668-4.187 2.203-1.676 5.625-3.426 10.93-4.563 8.39-1.797 15.574-5.91 20.66-9.562 5.09-3.66 8.09-6.864 8.106-6.883l-.82-.778-.036.036c-.336.355-3.41 3.53-8.379 7.039-4.972 3.507-11.847 7.343-19.77 9.039-5.437 1.168-9.019 2.976-11.374 4.765-2.352 1.79-3.473 3.555-3.989 4.582l1.008.512"/><path fill="#fff" d="M187.61 226.121s.995-7.344 10.992-11.824c13.101-5.875 20.894-12.902 23.21-18.73"/><path fill="#231f20" d="m188.172 226.195-.031-.004zl-.03-.004zc.009-.05.274-1.824 1.735-4.113 1.457-2.289 4.102-5.102 8.922-7.266 6.59-2.957 11.86-6.203 15.781-9.464 3.926-3.262 6.516-6.532 7.727-9.57l-1.047-.423c-1.105 2.782-3.57 5.942-7.398 9.118-3.828 3.18-9.008 6.382-15.524 9.304-5.094 2.281-7.937 5.324-9.488 7.805-1.55 2.484-1.82 4.398-1.828 4.457z"/><path fill="#fff" d="M130.566 235s32.567-14.652 50.008.313"/><path fill="#231f20" d="m130.797 235.516.039-.016c.41-.18 4.059-1.773 9.375-3.316 5.309-1.543 12.285-3.04 19.332-3.036 3.715 0 7.445.41 10.96 1.446 3.524 1.031 6.825 2.68 9.708 5.152l.73-.863c-3.015-2.59-6.472-4.309-10.117-5.38-3.648-1.07-7.484-1.491-11.281-1.491-7.434 0-14.727 1.62-20.164 3.234s-9.027 3.23-9.043 3.234z"/><path fill="#fff" d="M128.188 234.754s22.406-12.606 43.289-6.277c8.414 2.55 10.437 6.277 10.437 6.277"/><path fill="#231f20" d="m128.46 235.246.04-.02c.41-.226 4.078-2.218 9.617-4.152 5.535-1.937 12.934-3.808 20.793-3.808 4.074 0 8.274.504 12.403 1.754 4.148 1.257 6.687 2.792 8.187 3.996.746.601 1.234 1.117 1.531 1.476.149.18.25.32.313.414q.045.066.062.098l.012.02.027-.016-.027.015.027-.015-.027.015.992-.543c-.031-.058-.586-1.054-2.207-2.351-1.617-1.297-4.297-2.902-8.566-4.195-4.25-1.29-8.559-1.801-12.727-1.801-8.297 0-16.031 2.031-21.703 4.058-5.672 2.028-9.277 4.055-9.297 4.067z"/><path fill="#fff" d="M126.176 231.719s15.765-7.621 34.148-7.457"/><path fill="#231f20" d="m126.422 232.23.039-.02c.883-.425 15.863-7.39 33.277-7.386q.29-.001.578.004l.012-1.133q-.298-.005-.59-.004c-18.281.004-33.765 7.5-33.808 7.516z"/><path fill="#fff" d="M151.996 226.121s20.512-3.695 32.117 7.774"/><path fill="#231f20" d="m152.094 226.676.035-.004c.336-.059 3.34-.55 7.539-.55 3.48 0 7.777.335 12.062 1.53 4.282 1.2 8.547 3.246 11.989 6.649l.793-.809c-3.617-3.574-8.067-5.699-12.48-6.93-4.419-1.234-8.813-1.578-12.364-1.578-4.574 0-7.75.57-7.773.578z"/><path fill="#fff" d="M158.223 223.121s24.734-1.82 28.57 10.598"/><path fill="#231f20" d="M158.266 223.688q-.001.001.05-.004c.262-.016 1.446-.09 3.192-.09 3.398 0 8.937.277 13.945 1.726 2.504.72 4.871 1.739 6.77 3.137s3.328 3.16 4.03 5.43l1.079-.34c-.781-2.531-2.394-4.504-4.445-6.008-3.075-2.258-7.121-3.508-11.047-4.219-3.926-.707-7.738-.86-10.332-.86-2.031 0-3.317.095-3.328.099z"/><path fill="#fff" d="M245.945 235s-32.566-14.652-50.007.313"/><path fill="#231f20" d="M246.176 234.48c-.016-.003-3.606-1.62-9.043-3.234-5.442-1.613-12.727-3.234-20.164-3.234-3.797 0-7.633.422-11.278 1.492-3.648 1.07-7.105 2.789-10.12 5.379l.734.863c2.879-2.473 6.183-4.121 9.699-5.152 3.52-1.031 7.25-1.446 10.965-1.446 7.273-.003 14.472 1.59 19.844 3.184 2.687.8 4.917 1.598 6.472 2.195a66 66 0 0 1 1.8.72q.313.132.474.202c.05.02.093.04.117.051l.039.016z"/><path fill="#fff" d="M248.328 234.754s-22.41-12.606-43.293-6.277c-8.414 2.55-10.437 6.277-10.437 6.277"/><path fill="#231f20" d="M248.602 234.258c-.02-.012-3.625-2.04-9.297-4.067-5.668-2.027-13.407-4.058-21.703-4.058-4.168 0-8.473.512-12.727 1.8-4.27 1.294-6.945 2.899-8.566 4.196-1.618 1.297-2.176 2.293-2.207 2.351l.992.543-.028-.015.028.015-.028-.015.028.015c.031-.05.55-.937 2.062-2.12 1.516-1.184 4.028-2.665 8.043-3.883 4.133-1.25 8.328-1.754 12.403-1.754 8.113 0 15.738 1.996 21.328 3.996a73 73 0 0 1 6.664 2.746c.793.375 1.406.683 1.824.902q.314.166.477.25c.05.031.093.05.117.067l.039.02z"/><path fill="#fff" d="M250.34 231.719s-15.77-7.621-34.149-7.457"/><path fill="#231f20" d="M250.582 231.207c-.039-.016-15.523-7.512-33.805-7.516h-.593l.011 1.137c.196-.004.387-.004.582-.004 8.985 0 17.325 1.852 23.414 3.707a87 87 0 0 1 7.243 2.547c.859.348 1.523.637 1.976.836q.341.153.512.234.087.04.129.063l.043.02z"/><path fill="#fff" d="M224.52 226.121s-20.512-3.695-32.122 7.774"/><path fill="#231f20" d="M224.617 225.563c-.023-.008-3.199-.579-7.773-.579-3.551 0-7.946.344-12.364 1.578-4.414 1.231-8.859 3.356-12.48 6.93l.793.809c3.445-3.403 7.707-5.45 11.992-6.649 4.281-1.195 8.582-1.53 12.059-1.53 2.242 0 4.14.136 5.476.276a35 35 0 0 1 1.961.258c.047.004.082.012.106.016l.031.004z"/><path fill="#fff" d="M218.293 223.121s-24.738-1.82-28.57 10.598"/><path fill="#231f20" d="M218.332 222.559c-.012-.004-1.297-.098-3.324-.098-3.461 0-9.082.273-14.262 1.766-2.59.75-5.074 1.808-7.125 3.312-2.043 1.504-3.66 3.477-4.441 6.008l1.082.34c.699-2.27 2.129-4.032 4.027-5.43 2.848-2.102 6.75-3.332 10.582-4.02s7.586-.843 10.137-.843c.996 0 1.808.023 2.37.05q.424.02.65.028.11.012.167.012c.04.004.055.004.055.004z"/><path fill="#fff" d="m121.107 170.515 12.015 7.656q1.36.891 2.578 1.734a38 38 0 0 1 2.094 1.547 59 59 0 0 1-1.172-2.156q-.596-1.155-1.281-2.578l-4.39-9.14q-.083-.17-.188-.391a4 4 0 0 0-.219-.422l-.234-.39a2 2 0 0 0-.172-.266q-.55-.623-1.188-.547-.627.08-1.406.765l-.547.485-.875-1 5.781-5.11.875 1-.437.407q-.363.299-.563.609-.187.298-.234.672-.033.361.11.875.137.515.5 1.265l8.421 17.61-2.14 1.89-15.563-9.875 8.078 16.47-2.187 1.937-17.297-10.86q-.42-.263-.781-.375a1.5 1.5 0 0 0-.688-.078 1.6 1.6 0 0 0-.625.219 4 4 0 0 0-.687.484l-.297.266-.875-1 6.515-5.75.875 1-.546.484q-.716.628-.829 1.203-.105.58.422 1.172.16.19.407.344.253.158.546.375l8.86 5.672q1.266.813 2.437 1.61a49 49 0 0 1 2.11 1.484 88 88 0 0 1-1.36-2.39q-.72-1.296-1.422-2.72l-6.156-12.672ZM147.541 170.279l.282 3.515q.028.375.109.75.076.364.187.61.341.737.97.859.62.111 1.577-.328l.672-.313.547 1.204-7.016 3.218-.546-1.203.546-.25q.422-.187.672-.422c.164-.156.29-.351.375-.593q.124-.358.14-.891.014-.546-.03-1.344l-1.453-19.984 2.234-1.031 14.656 14.812q.374.377.672.578.31.205.625.281.327.065.672 0 .34-.076.781-.265l.36-.172.546 1.203-7.89 3.61-.547-1.204.672-.297q1.717-.795 1.078-2.171a2 2 0 0 0-.297-.47q-.19-.215-.437-.484l-2.625-2.687Zm2.266-8.875q-1.018-1.061-1.906-2a21 21 0 0 1-1.594-1.907c.094.375.164.746.219 1.11q.091.55.172 1.125.076.58.125 1.219c.039.43.082.906.125 1.437l.453 6.188 6.5-2.985Zm0 0"/><path fill="#fff" d="M179.182 164.045q1.06 1.08 1.922 1.563.856.47 1.86.265l.078-.015.265 1.297-.437.078q-1.456.298-2.407.39-.956.082-1.671-.078a3.4 3.4 0 0 1-1.282-.61q-.564-.449-1.281-1.234l-5.61-6.109-2.577.531 1.312 6.391q.14.673.438 1.047.294.361.671.5.388.142.875.125.48-.03.985-.14l.406-.079.266 1.297-9.016 1.86-.266-1.298.407-.093q.497-.093.953-.266.45-.171.75-.453c.207-.188.347-.43.422-.734q.124-.451-.016-1.125l-3.156-15.344c-.094-.445-.235-.797-.422-1.047a1.5 1.5 0 0 0-.688-.531 2 2 0 0 0-.859-.125c-.32.023-.648.062-.984.125l-.407.093-.28-1.296 8.327-1.72q4.03-.826 6.313.25 2.28 1.08 2.89 4.079.246 1.236.047 2.25a5.2 5.2 0 0 1-.734 1.828 6.5 6.5 0 0 1-1.234 1.438q-.706.626-1.47 1.046Zm-11.437-5.375 2.172-.453q1.373-.28 2.218-.766.845-.48 1.266-1.203.421-.715.469-1.672c.03-.632-.04-1.359-.203-2.171q-.253-1.231-.688-2.047-.439-.827-1.14-1.25-.691-.436-1.657-.485-.954-.059-2.265.203l-2.11.438Zm0 0"/><path fill="#fff" d="M198.311 163.83c.532.856 1.04 1.5 1.532 1.938q.731.645 1.75.656h.078l-.016 1.329h-.437q-1.489-.035-2.438-.157c-.637-.086-1.172-.226-1.61-.437q-.641-.311-1.109-.875c-.312-.375-.64-.867-.984-1.485l-4.172-7.171-2.625-.047-.094 6.515q-.017.692.188 1.125.2.423.547.641.358.221.828.297.468.082.984.094h.422l-.016 1.328-9.203-.157.016-1.328.406.016q.515 0 1-.063.482-.059.828-.265.357-.202.578-.625.217-.434.235-1.125l.25-15.656q.012-.687-.188-1.11a1.6 1.6 0 0 0-.562-.672 2.1 2.1 0 0 0-.828-.312 6 6 0 0 0-.985-.078l-.406-.016.031-1.328 8.5.14c2.739.055 4.77.594 6.094 1.626 1.32 1.03 1.961 2.57 1.922 4.609q-.017 1.268-.438 2.219a5.6 5.6 0 0 1-1.093 1.625q-.673.674-1.516 1.125a8.6 8.6 0 0 1-1.687.703Zm-10-7.734 2.22.032q1.389.032 2.327-.25.938-.295 1.5-.907.562-.608.813-1.53.264-.938.281-2.173.03-1.266-.234-2.156-.253-.89-.829-1.469-.562-.574-1.5-.844-.938-.263-2.28-.28l-2.141-.032Zm0 0"/><path fill="#fff" d="m200.726 168.163.25-1.313.39.078q.529.113 1.017.125.482.019.859-.156.388-.169.672-.578.28-.405.422-1.125l2.859-15.11q.14-.715.031-1.203c-.074-.32-.215-.578-.422-.765a2 2 0 0 0-.75-.453 7 7 0 0 0-.984-.282l-.39-.078.25-1.312 9.03 1.719-.25 1.312-.406-.078a7 7 0 0 0-1.015-.11 1.94 1.94 0 0 0-.86.157q-.377.158-.671.562-.282.411-.422 1.125l-2.86 15.11q-.14.722-.031 1.203.123.487.422.781.293.294.75.453.468.171.984.266l.407.078-.25 1.312ZM233.43 166.373c-.637 1.618-1.419 3.004-2.344 4.172q-1.377 1.745-3.11 2.72a8.6 8.6 0 0 1-3.765 1.077q-2.034.107-4.266-.765-2.332-.91-3.766-2.375a8.16 8.16 0 0 1-2.03-3.329c-.4-1.257-.528-2.628-.392-4.109.133-1.476.52-3.031 1.157-4.656.632-1.633 1.406-3.04 2.312-4.219q1.36-1.78 3.047-2.734 1.7-.95 3.75-1.032 2.063-.075 4.406.829 2.234.878 3.64 2.312a8.44 8.44 0 0 1 2.032 3.297q.64 1.876.453 4.11-.175 2.237-1.125 4.702m-15.25-5.968q-.862 2.175-1.22 4.015-.345 1.846-.093 3.313c.176.98.562 1.82 1.156 2.531q.891 1.077 2.531 1.719 1.639.64 3.032.453 1.388-.176 2.562-1.078 1.172-.908 2.156-2.5.997-1.594 1.86-3.766.843-2.185 1.187-4.031.356-1.842.11-3.297-.251-1.465-1.141-2.516c-.586-.707-1.422-1.273-2.516-1.703q-1.641-.638-3.03-.468-1.395.158-2.58 1.062-1.19.891-2.187 2.484-.984 1.595-1.828 3.782M245.266 183.317q-.048 1.5.203 2.438a2.62 2.62 0 0 0 1.078 1.531l.062.047-.75 1.094-.359-.25q-1.221-.845-1.938-1.485-.719-.645-1.093-1.265a3.4 3.4 0 0 1-.438-1.344q-.065-.72.016-1.781l.531-8.282-2.156-1.5-3.719 5.36q-.393.562-.469 1.047-.065.48.11.843.17.375.515.704.343.326.766.625l.344.234-.75 1.094-7.563-5.235.75-1.093.344.234q.42.28.86.5.433.217.843.25.404.029.813-.219.42-.234.812-.797L243 163.208q.387-.563.469-1.031.076-.482-.094-.875a2 2 0 0 0-.516-.719 5.7 5.7 0 0 0-.765-.61l-.344-.234.766-1.094 6.984 4.844q3.387 2.343 4.172 4.735.778 2.39-.969 4.906-.72 1.031-1.594 1.594a5.4 5.4 0 0 1-1.812.734 6.5 6.5 0 0 1-1.906.094 9 9 0 0 1-1.766-.344Zm-4-12.015 1.812 1.265q1.154.798 2.078 1.078.937.282 1.75.094.81-.201 1.531-.812.735-.621 1.438-1.64.717-1.044 1-1.923.293-.89.14-1.687c-.105-.532-.37-1.04-.796-1.532q-.627-.748-1.735-1.515l-1.75-1.219ZM249.108 192.882q-1.066-1.125-1.656-2.203-.579-1.08-.72-2.047a3.6 3.6 0 0 1 .188-1.828 4.14 4.14 0 0 1 1.032-1.547q.684-.67 1.515-.641.844.017 1.594.797a9.5 9.5 0 0 0-1.156 1.547 5.1 5.1 0 0 0-.625 1.656q-.159.857.094 1.703c.164.57.503 1.125 1.015 1.656q1.466 1.547 3.031 1.704 1.576.153 2.97-1.188.621-.597.921-1.234.312-.645.313-1.453.012-.798-.25-1.829a20 20 0 0 0-.829-2.421 18.6 18.6 0 0 1-.828-2.735 8.1 8.1 0 0 1-.172-2.375 5.5 5.5 0 0 1 .61-2.062q.516-.968 1.453-1.875.967-.938 2.094-1.313a5.1 5.1 0 0 1 2.297-.219q1.168.158 2.328.813 1.155.645 2.203 1.734.983 1.02 1.515 2.016.544.984.72 1.875.167.892-.032 1.625c-.125.492-.352.89-.672 1.203q-.738.705-1.594.578-.844-.123-1.64-.937a6.4 6.4 0 0 0 .937-1.141q.405-.621.516-1.312c.082-.47.05-.946-.094-1.438q-.204-.733-.906-1.453a5 5 0 0 0-1.297-1 3.4 3.4 0 0 0-1.36-.375q-.69-.031-1.359.25c-.45.18-.867.453-1.25.828q-.675.644-1.015 1.328-.347.675-.36 1.485-.019.815.25 1.859c.188.687.461 1.492.828 2.406q.546 1.407.844 2.625c.207.82.297 1.594.266 2.313a5.6 5.6 0 0 1-.47 2.03q-.408.968-1.28 1.813-1.096 1.031-2.328 1.454a5.26 5.26 0 0 1-2.532.25c-.855-.118-1.718-.422-2.593-.922q-1.3-.738-2.516-2M163.344 251.734q2.11 0 3.657.359 1.545.346 2.578.969 1.03.609 1.547 1.453.515.844.515 1.828 0 .659-.281 1.188a2.7 2.7 0 0 1-.75.906q-.468.377-1.125.578a5 5 0 0 1-1.406.187 7 7 0 0 0-.266-1.89 4.8 4.8 0 0 0-.828-1.703 4.25 4.25 0 0 0-1.469-1.22q-.907-.468-2.25-.468c-1.554 0-2.87.29-3.953.86q-1.627.843-2.656 2.484c-.68 1.086-1.172 2.422-1.484 4.016q-.456 2.39-.454 5.484-.001 2.753.485 5.031c.32 1.524.828 2.828 1.515 3.922q1.044 1.63 2.657 2.531 1.623.89 3.89.89 1.5 0 2.64-.28a9 9 0 0 0 2.032-.766 7.5 7.5 0 0 0 1.563-1.11q.668-.637 1.203-1.327c.219.148.398.351.547.609.156.25.234.586.234 1 0 .523-.18 1.055-.531 1.594q-.535.813-1.625 1.468-1.08.659-2.75 1.094-1.658.436-3.938.438-3.065 0-5.39-1.078a10.7 10.7 0 0 1-3.907-3.079q-1.565-1.981-2.375-4.765-.796-2.779-.796-6.172 0-3.328.843-6.094.844-2.765 2.485-4.75 1.652-1.981 4.125-3.078 2.466-1.109 5.718-1.11M188.539 251.734q2.11 0 3.656.359 1.546.346 2.578.969 1.031.609 1.547 1.453t.516 1.828q0 .659-.281 1.188a2.7 2.7 0 0 1-.75.906q-.47.377-1.125.578a5 5 0 0 1-1.407.187 7 7 0 0 0-.265-1.89 4.8 4.8 0 0 0-.828-1.703 4.25 4.25 0 0 0-1.47-1.22q-.907-.468-2.25-.468c-1.554 0-2.87.29-3.952.86q-1.628.843-2.657 2.484c-.68 1.086-1.171 2.422-1.484 4.016-.305 1.593-.453 3.421-.453 5.484q-.001 2.753.484 5.031c.32 1.524.828 2.828 1.516 3.922q1.044 1.63 2.656 2.531 1.624.89 3.89.89 1.5 0 2.641-.28a9 9 0 0 0 2.032-.766 7.5 7.5 0 0 0 1.562-1.11q.67-.637 1.203-1.327c.22.148.399.351.547.609.156.25.235.586.235 1q-.002.785-.532 1.594-.534.813-1.625 1.468-1.078.659-2.75 1.094-1.658.436-3.937.438-3.065 0-5.39-1.078a10.7 10.7 0 0 1-3.907-3.079q-1.566-1.981-2.375-4.765-.797-2.779-.797-6.172 0-3.328.844-6.094.843-2.765 2.484-4.75 1.653-1.981 4.125-3.078 2.467-1.109 5.719-1.11M206.515 271.656l-1.563 4.312a5.3 5.3 0 0 0-.281.953 4 4 0 0 0-.094.797q0 1.05.672 1.531.669.486 2.047.485h.937v1.718h-10.015v-1.718h.781q.607.001 1.016-.125a1.86 1.86 0 0 0 .765-.5q.34-.358.657-.985.311-.623.687-1.61l9.094-24.358h3.219l9.28 25.39c.157.43.317.781.485 1.063a2.13 2.13 0 0 0 1.375 1.03q.436.095 1.047.095h.531v1.718h-11.28v-1.718h.937q2.467 0 2.468-1.97 0-.339-.093-.702a7 7 0 0 0-.25-.828l-1.641-4.578Zm7.5-9.25q-.645-1.812-1.172-3.407a33 33 0 0 1-.875-3.078q-.14.736-.328 1.438-.188.691-.422 1.406c-.149.48-.313.984-.5 1.516q-.282.784-.64 1.75l-2.782 7.562h9.266Zm0 0"/></svg>