<svg width="1280" height="226" viewBox="0 0 1280 226" fill="none" xmlns="http://www.w3.org/2000/svg">
<path d="M-56 213.641C-55.6567 213.641 -51.3255 213.728 -39.5501 215.013C-20.751 217.065 6.52656 221.577 33.5097 221.923C59.168 222.251 76.7194 205.744 89.0791 193.37C92.6871 189.757 97.0686 166.623 104.951 131.387C110.02 108.722 118.855 95.6527 127.385 84.7156C136.092 73.5527 145.992 67.0852 158.281 60.8894C166.852 56.5681 181.062 51.7696 199.209 46.2222C217.355 40.6749 239.238 35.013 252.683 31.265C270.594 26.2719 283.654 19.0855 299.715 8.9838C320.388 -7.76932 329.692 -20.2723 341.333 -39.4156C347.045 -49.7 352.362 -61.1416 357.839 -72.9298" stroke="#EED1AD" stroke-width="7" stroke-linecap="round" stroke-dasharray="14 18"/>
<path d="M777.03 -26.7159C777.03 -26.8482 796.214 -26.9474 826.447 -26.8021C839.843 -26.7377 850.69 -21.951 868.98 -12.0593C879.113 -6.57872 889.777 1.92278 904.913 16.6357C920.048 31.3487 939.025 52.5486 952.818 66.5437C973.666 87.6976 990.598 96.6332 1008.46 103.381C1018.44 107.148 1031.13 109.063 1052.71 110.699C1074.29 112.335 1104.59 112.982 1121.19 113.612C1139.8 114.317 1143.97 116.695 1155.76 126.107C1165.61 133.98 1182.39 149.293 1195.78 159.983C1217.71 177.489 1231 184.041 1237.31 186.623C1243.65 189.222 1259.43 190.923 1284.32 192.819C1297.01 193.463 1309.83 193.463 1317.71 193.168C1325.6 192.872 1328.16 192.28 1330.81 191.671" stroke="#EED1AD" stroke-width="7" stroke-linecap="round" stroke-dasharray="14 18"/>
<path d="M-17.1552 129.008C-12.7032 129.008 -0.687805 128.239 30.2641 112.683C48.9309 103.301 58.7595 93.9347 65.6182 86.0488C78.7415 70.9599 93.44 50.2694 105.968 33.9778C112.641 25.2988 117.428 22.379 123.504 19.0768C133.538 13.6245 156.536 7.19349 185.509 -0.396729C207.089 -6.04999 221.485 -9.9087 235.296 -17.9959C256.219 -32.7147 271.874 -45.2024 277.27 -51.0071C279.582 -53.5962 281.025 -55.4614 282.512 -57.3831" stroke="#EED1AD" stroke-width="7" stroke-linecap="round" stroke-dasharray="14 18"/>
<path d="M954.26 -42.438C954.26 -38.7829 955.807 -27.8153 968.781 -10.0042C977.708 2.25026 992.401 11.2638 1006.57 19.7052C1019.5 27.4023 1035.51 31.8366 1063.87 36.3241C1083.25 39.3902 1113.22 40.6688 1132.04 42.5269C1157.85 45.0747 1167.52 48.5258 1173 50.9256C1178.9 53.5083 1185.45 58.8232 1204.45 75.5148C1219.75 88.95 1246.03 113.022 1260.86 126.217C1282.85 143.883 1298.07 148.966 1322.74 153.131C1328.2 153.653 1332.1 153.653 1336.12 153.653" stroke="#EED1AD" stroke-width="7" stroke-linecap="round" stroke-dasharray="14 18"/>
<path d="M1144.84 -14C1156.47 -13.8987 1182.08 -12.6756 1215.02 6.54755C1228.62 14.4822 1241.86 28.9628 1259.62 46.1892C1290.74 67.0818 1305.83 72.6451 1311.23 73.4534C1313.83 73.7282 1316.13 73.7282 1318.5 73.7282" stroke="#EED1AD" stroke-width="7" stroke-linecap="round" stroke-dasharray="14 18"/>
<path d="M-35.1625 53.2305C-21.3183 53.1147 11.7229 52.0111 19.8902 49.3884C23.6664 48.1758 32.2048 40.2088 48.0019 23.566C57.309 13.7607 67.1903 -0.651451 76.9293 -17.0564C86.6682 -33.4614 95.4422 -51.8945 100.395 -63.0591C105.349 -74.2237 106.215 -77.5613 107.108 -81" stroke="#EED1AD" stroke-width="7" stroke-linecap="round" stroke-dasharray="14 18"/>
<path d="M411.184 -11.1316C412.049 -9.13812 429.952 9.13203 455.775 26.6784C461.249 30.3974 467.401 31.9246 479.756 35.0823C492.111 38.24 510.927 42.231 534.229 44.652C557.53 47.0729 584.748 47.8029 599.71 48.0797C616.551 48.3912 628.406 45.0997 646.888 39.2427C662.749 34.2161 687.319 19.7067 717.195 3.08502C729.098 -3.53753 735.056 -5.24236 761.98 -9.29074C788.903 -13.3391 836.783 -19.3629 862.413 -22.6924C889.972 -26.4749 893.993 -27.7086 901.308 -31.2718C906.59 -34.0679 915.06 -38.8695 923.787 -43.8166" stroke="#EED1AD" stroke-width="7" stroke-linecap="round" stroke-dasharray="14 18"/>
<path d="M470.837 -8.6272C471.226 -8.53208 484.233 -2.33733 509.1 8.34023C520.938 13.4236 532.087 15.6037 547.204 17.2467C581.164 20.9375 608.955 18.3559 624.966 14.7931C640.338 10.1137 665.441 -2.48635 692.709 -18.2304C702.566 -24.0611 704.34 -25.5086 706.168 -27" stroke="#EED1AD" stroke-width="7" stroke-linecap="round" stroke-dasharray="14 18"/>
</svg>
