<svg width="393" height="199" viewBox="0 0 393 199" fill="none" xmlns="http://www.w3.org/2000/svg">
<path d="M-33 126.521C-31.818 126.521 -21.0742 126.431 -4.9278 126.065C2.69774 125.893 18.82 114.801 43.3036 97.5211C58.5849 86.7359 67.2577 79.859 74.8925 76.0055C81.6147 72.6126 92.6135 70.931 107.297 69.3608C131.204 66.8043 143.845 63.4717 156.272 55.557C165.764 49.5122 173.217 39.6086 179.693 30.3916C185.586 19.7184 189.691 9.46211 191.856 -2.14395C192.776 -9.33418 193.334 -19.165 193.909 -29.2937" stroke="#EED1AD" stroke-width="7" stroke-linecap="round" stroke-dasharray="14 18"/>
<path d="M-15.7646 82.0452C-14.8002 79.6659 -6.69258 70.5941 4.66261 64.4952C10.3922 61.4177 21.8014 58.2012 40.2903 53.3257C58.7792 48.4501 84.3586 42.7925 100.238 38.164C122.085 31.796 129.068 24.775 133.434 20.0758C139.249 13.8174 143.705 4.22235 147.864 -5.27933C150.94 -13.8086 153.277 -27.3455 154.867 -43.5348C155.408 -50.292 155.408 -54.0885 155.408 -58" stroke="#EED1AD" stroke-width="7" stroke-linecap="round" stroke-dasharray="14 18"/>
<path d="M232.62 -3.34774C232.403 -3.34774 232.182 0.880552 232.535 8.66759C232.829 15.1557 240.191 23.5876 250.241 34.37C259.297 44.0867 270.307 50.8768 280.935 56.1994C289.721 60.5997 306.004 63.0423 324.848 66.7527C335.004 68.7524 338.822 70.9232 341.415 72.4112C344.714 74.3041 347.37 76.7752 356.641 94.2951C365.265 110.592 380.407 142.669 388.871 159.743C399.451 181.086 405.443 184.617 410.743 187.618C413.416 188.693 426.933 191.003 447.539 193.815C455.999 194.795 460.405 194.869 464.945 194.946" stroke="#EED1AD" stroke-width="7" stroke-linecap="round" stroke-dasharray="14 18"/>
<path d="M275.907 1.10792C276.354 1.10792 284.977 2.33559 300.936 5.18619C315.22 7.73757 330.374 14.7568 345.502 21.942C356.173 27.0104 365.414 36.0969 377.224 49.7273C391.353 66.0349 401.475 80.1385 410.532 86.6772C420.369 92.4593 436.166 98.663 452.816 103.984C458.905 105.859 460.201 106.058 464.931 106.41" stroke="#EED1AD" stroke-width="7" stroke-linecap="round" stroke-dasharray="14 18"/>
</svg>
