<svg width="1280" height="223" viewBox="0 0 1280 223" fill="none" xmlns="http://www.w3.org/2000/svg">
<path d="M1357.12 11.7868C1356.77 11.7868 1352.44 11.7 1340.67 10.4145C1321.87 8.36231 1294.59 3.85013 1267.61 3.50482C1241.95 3.17647 1224.4 19.6834 1212.04 32.0578C1208.43 35.6701 1204.05 58.8046 1196.17 94.0409C1191.1 116.705 1182.26 129.775 1173.73 140.712C1165.02 151.875 1155.12 158.342 1142.83 164.538C1134.26 168.859 1120.05 173.658 1101.91 179.205C1083.76 184.753 1061.88 190.415 1048.43 194.163C1030.52 199.156 1017.46 206.342 1001.4 216.444C980.728 233.197 971.424 245.7 959.783 264.843C954.071 275.128 948.754 286.569 943.277 298.357" stroke="#EED1AD" stroke-width="7" stroke-linecap="round" stroke-dasharray="14 18"/>
<path d="M524.086 252.143C524.086 252.276 504.902 252.375 474.669 252.23C461.273 252.165 450.425 247.379 432.136 237.487C422.003 232.006 411.338 223.505 396.203 208.792C381.068 194.079 362.091 172.879 348.298 158.884C327.45 137.73 310.518 128.794 292.651 122.047C282.676 118.28 269.987 116.364 248.408 114.728C226.83 113.092 196.526 112.445 179.925 111.816C161.318 111.111 157.143 108.733 145.358 99.3206C135.501 91.4477 118.722 76.1341 105.335 65.445C83.4105 47.9385 70.1107 41.3863 63.8099 38.805C57.4654 36.2059 41.6871 34.5044 16.7942 32.6088C4.10176 31.9643 -8.71293 31.9643 -16.5975 32.26C-24.4821 32.5557 -27.0484 33.1472 -29.6924 33.7565" stroke="#EED1AD" stroke-width="7" stroke-linecap="round" stroke-dasharray="14 18"/>
<path d="M1318.27 96.4195C1313.82 96.4195 1301.8 97.1888 1270.85 112.745C1252.18 122.126 1242.36 131.493 1235.5 139.379C1222.37 154.468 1207.68 175.158 1195.15 191.45C1188.47 200.129 1183.69 203.049 1177.61 206.351C1167.58 211.803 1144.58 218.234 1115.61 225.824C1094.03 231.478 1079.63 235.336 1065.82 243.423C1044.9 258.142 1029.24 270.63 1023.85 276.435C1021.53 279.024 1020.09 280.889 1018.6 282.811" stroke="#EED1AD" stroke-width="7" stroke-linecap="round" stroke-dasharray="14 18"/>
<path d="M346.856 267.866C346.856 264.21 345.309 253.243 332.334 235.432C323.407 223.177 308.715 214.164 294.541 205.722C281.616 198.025 265.605 193.591 237.242 189.103C217.862 186.037 187.898 184.759 169.076 182.901C143.266 180.353 133.593 176.902 128.114 174.502C122.217 171.919 115.666 166.604 96.663 149.913C81.3675 136.478 55.0892 112.406 40.2554 99.211C18.2685 81.5446 3.04595 76.4617 -21.6291 72.2961C-27.086 71.7741 -30.984 71.7741 -35 71.7741" stroke="#EED1AD" stroke-width="7" stroke-linecap="round" stroke-dasharray="14 18"/>
<path d="M156.278 239.428C144.641 239.326 119.039 238.103 86.0953 218.88C72.4971 210.945 59.2587 196.465 41.499 179.238C10.372 158.346 -4.71448 152.782 -10.1159 151.974C-12.7112 151.699 -15.0107 151.699 -17.3799 151.699" stroke="#EED1AD" stroke-width="7" stroke-linecap="round" stroke-dasharray="14 18"/>
<path d="M1336.28 172.197C1322.43 172.313 1289.39 173.416 1281.23 176.039C1277.45 177.252 1268.91 185.219 1253.11 201.862C1243.81 211.667 1233.93 226.079 1224.19 242.484C1214.45 258.889 1205.67 277.322 1200.72 288.487C1195.77 299.651 1194.9 302.989 1194.01 306.428" stroke="#EED1AD" stroke-width="7" stroke-linecap="round" stroke-dasharray="14 18"/>
<path d="M889.931 236.559C889.067 234.566 871.164 216.296 845.34 198.749C839.867 195.03 833.715 193.503 821.36 190.345C809.004 187.188 790.189 183.197 766.887 180.776C743.585 178.355 716.368 177.625 701.406 177.348C684.565 177.036 672.71 180.328 654.228 186.185C638.367 191.211 613.797 205.721 583.921 222.343C572.018 228.965 566.06 230.67 539.136 234.718C512.212 238.767 464.333 244.79 438.703 248.12C411.143 251.902 407.123 253.136 399.808 256.699C394.526 259.495 386.056 264.297 377.329 269.244" stroke="#EED1AD" stroke-width="7" stroke-linecap="round" stroke-dasharray="14 18"/>
<path d="M830.278 234.055C829.89 233.96 816.883 227.765 792.016 217.087C780.177 212.004 769.029 209.824 753.911 208.181C719.952 204.49 692.161 207.072 676.15 210.634C660.777 215.314 635.675 227.914 608.406 243.658C598.55 249.489 596.775 250.936 594.947 252.428" stroke="#EED1AD" stroke-width="7" stroke-linecap="round" stroke-dasharray="14 18"/>
</svg>
