<svg width="393" height="190" viewBox="0 0 393 190" fill="none" xmlns="http://www.w3.org/2000/svg">
<path d="M-32.9368 50.379C-31.8047 51.9748 -8.39124 70.9883 14.9174 85.0344C27.7219 92.7506 44.3246 95.0466 56.3287 98.5267C64.6685 100.944 83.7978 114.262 110.183 131.851C129.141 144.489 163.122 144.41 189.107 141.224C210.324 138.623 228.831 124.297 242.101 123.506C247.411 123.19 252.497 126.572 262.57 134.112C281.818 148.52 296.656 163.132 308.102 177.201C328.571 202.363 344.864 224.052 355.032 232.917C360.201 237.095 365.388 240.623 371.39 243.753C377.391 246.884 384.049 249.509 390.909 252.214" stroke="#EED1AD" stroke-width="7" stroke-linecap="round" stroke-dasharray="14 18"/>
<path d="M390.393 200.195C387.676 198.339 379.599 191.074 367.004 171.771C341.867 133.247 336.335 122.282 334.669 110.331C332.588 95.4092 343.309 85.3686 360.487 69.8917C373.232 58.4088 395.953 41.6357 409.844 30.3009C428.569 14.1089 435.004 8.07285 437.975 6.10081C439.49 5.16052 441.02 4.34298 442.597 3.50067" stroke="#EED1AD" stroke-width="7" stroke-linecap="round" stroke-dasharray="14 18"/>
<path d="M-25.405 129.285C-25.5449 129.145 -13.9025 129.031 8.87423 130.258C30.3085 131.412 48.9776 141.142 64.1442 149.353C83.8959 160.046 91.0583 173.864 101.218 198.176C105.25 209.444 110.929 226.49 116.637 239.993C122.346 253.496 127.911 262.939 133.645 272.669" stroke="#EED1AD" stroke-width="7" stroke-linecap="round" stroke-dasharray="14 18"/>
<path d="M165.321 242.105C165.293 238.097 164.063 226.92 154.235 208.339C150.044 200.416 148.897 193.559 149.568 187.85C151.132 174.557 172.966 168.914 183.293 165.238C201.966 158.592 230.143 161.766 246.144 164.015C250.021 164.56 254.225 169.91 264.078 181.194C281.453 203.463 299.011 224.158 310.952 235.633C316.2 240.692 319.8 244.201 323.51 247.815" stroke="#EED1AD" stroke-width="7" stroke-linecap="round" stroke-dasharray="14 18"/>
</svg>
