<svg xmlns="http://www.w3.org/2000/svg" width="256" height="256" viewBox="0 0 100 100"><rect width="100" height="100" rx="20" fill="#df9003"></rect><path fill="#f9f4f1" d="M11.81 61.15L11.81 61.15Q11.81 60.14 12.09 59.46Q12.37 58.79 12.85 58.38Q13.34 57.97 14.00 57.80Q14.67 57.63 15.42 57.63L15.42 57.63Q16.15 57.63 16.81 57.80Q17.46 57.97 17.96 58.38Q18.45 58.79 18.74 59.46Q19.03 60.14 19.03 61.15L19.03 61.15Q19.03 62.14 18.74 62.80Q18.45 63.47 17.96 63.88Q17.46 64.29 16.81 64.47Q16.15 64.65 15.42 64.65L15.42 64.65Q14.67 64.65 14.00 64.47Q13.34 64.29 12.85 63.88Q12.37 63.47 12.09 62.80Q11.81 62.14 11.81 61.15ZM30.70 57.76L30.70 57.76Q30.70 59.65 31.30 60.59Q31.90 61.54 33.19 61.54L33.19 61.54Q34.13 61.54 34.90 61.14Q35.66 60.74 36.21 60.01Q36.75 59.28 37.04 58.24Q37.33 57.20 37.33 55.91L37.33 55.91L37.33 52.60L35.36 52.73Q34.05 52.79 33.15 53.15Q32.24 53.50 31.71 54.13Q31.17 54.75 30.93 55.65Q30.70 56.55 30.70 57.76ZM34.61 42.85L34.61 42.85Q33.77 42.85 33.20 43.20Q32.63 43.55 32.29 44.19Q31.94 44.82 31.80 45.69Q31.66 46.56 31.66 47.59L31.66 47.59Q28.70 47.59 27.21 46.93Q25.71 46.26 25.71 44.65L25.71 44.65Q25.71 43.45 26.43 42.59Q27.15 41.73 28.39 41.19Q29.62 40.65 31.27 40.41Q32.91 40.16 34.78 40.16L34.78 40.16Q37.10 40.16 38.83 40.56Q40.56 40.96 41.71 41.84Q42.86 42.72 43.44 44.15Q44.02 45.57 44.02 47.64L44.02 47.64L44.02 58.85Q44.02 59.75 44.16 60.36Q44.30 60.96 44.60 61.31Q44.90 61.67 45.41 61.82Q45.93 61.97 46.66 61.97L46.66 61.97L46.83 61.97L46.83 64.31L38.65 64.31L37.72 61.28L37.33 61.28Q36.60 62.16 35.96 62.82Q35.32 63.47 34.58 63.90Q33.85 64.33 32.94 64.53Q32.03 64.74 30.78 64.74L30.78 64.74Q29.32 64.74 28.06 64.31Q26.81 63.88 25.87 62.99Q24.94 62.10 24.40 60.75Q23.86 59.41 23.86 57.58L23.86 57.58Q23.86 54.00 26.32 52.28Q28.78 50.56 33.73 50.41L33.73 50.41L37.33 50.28L37.33 47.85Q37.33 46.76 37.25 45.83Q37.16 44.91 36.88 44.24Q36.60 43.58 36.06 43.21Q35.51 42.85 34.61 42.85ZM63.83 61.97L63.83 64.31L49.13 64.31L49.13 61.97L49.26 61.97Q50.01 61.97 50.63 61.86Q51.26 61.75 51.71 61.42Q52.16 61.09 52.41 60.46Q52.65 59.84 52.65 58.81L52.65 58.81L52.65 46.05Q52.65 45.08 52.43 44.49Q52.20 43.90 51.78 43.58Q51.36 43.25 50.78 43.16Q50.20 43.06 49.47 43.06L49.47 43.06L49.34 43.06L49.34 40.72L58.24 40.72L59.12 44.16L59.33 44.16Q59.76 43.17 60.28 42.43Q60.80 41.69 61.52 41.19Q62.24 40.70 63.21 40.45Q64.19 40.20 65.54 40.20L65.54 40.20Q68.14 40.20 69.37 41.12Q70.59 42.03 70.59 43.77L70.59 43.77Q70.59 45.79 69.13 46.91Q67.67 48.02 65.01 48.02L65.01 48.02Q65.01 47.12 64.91 46.43Q64.81 45.75 64.57 45.29Q64.32 44.84 63.90 44.61Q63.48 44.37 62.86 44.37L62.86 44.37Q62.08 44.37 61.53 44.76Q60.97 45.14 60.58 45.76Q60.19 46.37 59.95 47.14Q59.70 47.92 59.56 48.70Q59.42 49.48 59.38 50.19Q59.33 50.90 59.33 51.42L59.33 51.42L59.33 59.02Q59.33 59.99 59.57 60.58Q59.81 61.17 60.22 61.47Q60.62 61.77 61.19 61.87Q61.76 61.97 62.41 61.97L62.41 61.97L63.83 61.97ZM85.07 61.19L85.07 61.19Q85.93 61.19 86.72 61.08Q87.50 60.96 88.19 60.79L88.19 60.79L88.19 63.64Q87.84 63.81 87.25 64.01Q86.66 64.20 85.88 64.36Q85.09 64.52 84.11 64.63Q83.12 64.74 81.96 64.74L81.96 64.74Q80.48 64.74 79.27 64.38Q78.07 64.03 77.23 63.20Q76.39 62.38 75.94 61.05Q75.49 59.73 75.49 57.80L75.49 57.80L75.49 43.73L72.18 43.73L72.18 41.47Q73.60 41.47 74.72 40.91Q75.83 40.35 76.50 39.62L76.50 39.62Q77.85 38.21 78.52 35.26L78.52 35.26L82.17 35.26L82.17 40.72L87.80 40.72L87.80 43.73L82.17 43.73L82.17 57.35Q82.17 59.35 82.85 60.27Q83.53 61.19 85.07 61.19Z"></path></svg>