<svg width="1602" height="11" viewBox="0 0 1602 11" fill="none" xmlns="http://www.w3.org/2000/svg">
<path d="M1.35657 5.4613C14.6899 0.794637 28.0232 0.794637 41.3566 5.4613C54.6899 10.128 68.0232 10.128 81.3566 5.4613C94.6899 0.794637 108.023 0.794637 121.357 5.4613C134.69 10.128 148.023 10.128 161.357 5.4613C174.69 0.794637 188.023 0.794637 201.357 5.4613C214.69 10.128 228.023 10.128 241.357 5.4613C254.69 0.794637 268.023 0.794637 281.357 5.4613C294.69 10.128 308.023 10.128 321.357 5.4613C334.69 0.794637 348.023 0.794637 361.357 5.4613C374.69 10.128 388.023 10.128 401.357 5.4613C414.69 0.794637 428.023 0.794637 441.357 5.4613C454.69 10.128 468.023 10.128 481.357 5.4613C494.69 0.794637 508.023 0.794637 521.357 5.4613C534.69 10.128 548.023 10.128 561.357 5.4613C574.69 0.794637 588.023 0.794637 601.357 5.4613C614.69 10.128 628.023 10.128 641.357 5.4613C654.69 0.794637 668.023 0.794637 681.357 5.4613C694.69 10.128 708.023 10.128 721.357 5.4613C734.69 0.794637 748.023 0.794637 761.357 5.4613C774.69 10.128 788.023 10.128 801.357 5.4613C814.69 0.794637 828.023 0.794637 841.357 5.4613C854.69 10.128 868.023 10.128 881.357 5.4613C894.69 0.794637 908.023 0.794637 921.357 5.4613C934.69 10.128 948.023 10.128 961.357 5.4613C974.69 0.794637 988.023 0.794637 1001.36 5.4613C1014.69 10.128 1028.02 10.128 1041.36 5.4613C1054.69 0.794637 1068.02 0.794637 1081.36 5.4613C1094.69 10.128 1108.02 10.128 1121.36 5.4613C1134.69 0.794637 1148.02 0.794637 1161.36 5.4613C1174.69 10.128 1188.02 10.128 1201.36 5.4613C1214.69 0.794637 1228.02 0.794637 1241.36 5.4613C1254.69 10.128 1268.02 10.128 1281.36 5.4613C1294.69 0.794637 1308.02 0.794637 1321.36 5.4613C1334.69 10.128 1348.02 10.128 1361.36 5.4613C1374.69 0.794637 1388.02 0.794637 1401.36 5.4613C1414.69 10.128 1428.02 10.128 1441.36 5.4613C1454.69 0.794637 1468.02 0.794637 1481.36 5.4613C1494.69 10.128 1508.02 10.128 1521.36 5.4613C1534.69 0.794637 1548.02 0.794637 1561.36 5.4613C1574.69 10.128 1588.02 10.128 1601.36 5.4613" stroke="#B85949" stroke-width="3"/>
</svg>
